<?xml version="1.0" encoding="UTF-8"?>
<svg id="Layer_1" data-name="Layer 1" xmlns="http://www.w3.org/2000/svg" viewBox="0 0 1279.9998 329.9999">
  <defs>
    <style>
      .cls-1 {
        fill: none;
      }

      .cls-2 {
        fill: #eb1000;
      }
    </style>
  </defs>
  <path class="cls-1" d="M832,329.9999H0C0,220,0,110.0001,0,.0001c426.6665,0,853.333,0,1279.9996-.0001.0001,109.9998.0001,219.9996.0002,329.9997-149.1665.0002-298.3332.0002-447.9999.0002M76.0297,195.5393c-1.1087,3.0233-2.076,6.1077-3.3504,9.0594-5.835,13.515-11.8908,26.9361-17.6119,40.4987-7.005,16.606-13.7562,33.319-20.6158,49.9864-1.6692,4.0559-3.3327,8.1141-5.2353,12.747h190.8398c-7.9464-22.0804-15.8046-43.916-23.7061-65.8718h-57.34c15.8336-39.7497,31.5002-79.0802,47.6129-119.5306,24.8169,62.6152,49.2279,124.2062,73.4162,185.2352h89.5535c-3.6847-8.9283-7.1107-17.3003-10.5911-25.6497-9.3664-22.4699-18.795-44.914-28.1185-67.4017-4.0751-9.8289-7.8246-19.7936-11.9518-29.5999-6.5403-15.5404-13.4107-30.9424-19.89-46.5076-7.8931-18.9615-15.4234-38.074-23.301-57.0421-7.4318-17.8949-15.0576-35.7104-22.7876-53.4783-.5797-1.3325-2.6736-2.8482-4.073-2.8574-25.9938-.1703-51.9893-.1643-77.9834-.0142-1.3896.008-3.2168,1.3105-4.0522,2.5441-1.3285,1.9618-1.9911,4.3742-2.9378,6.5949-7.6179,17.8697-15.2909,35.7161-22.8407,53.6145-9.0782,21.5219-18.0274,43.0983-27.0792,64.6314-5.9282,14.1024-11.9394,28.1698-17.9567,43.0418M546.9999,241.4999V17.2799h-75.0649v68.5536c-8.1501-.9867-15.7867-2.7465-23.4027-2.6612-16.4116.1837-32.5895,2.411-47.9061,8.9528-17.6754,7.5492-32.4195,18.665-43.8656,34.2907-8.0139,10.9402-13.3235,22.8437-17.1503,35.8464-3.3737,11.4631-4.8643,23.1122-5.3634,34.7732-.6097,14.2463,1.9251,28.3435,6.2841,42.0293,4.2682,13.4007,11.0879,25.3158,20.6627,35.5815,8.1913,8.7823,17.5052,15.9692,28.2403,21.7033,18.0941,9.6649,37.3744,14.503,57.5585,15.4888,15.6587.7647,31.318.0497,46.9334-2.6547,16.9235-2.9309,33.6076-6.2547,49.5948-12.774,3.0828-1.2571,3.5163-2.7216,3.5069-5.4112-.0566-16.166-.0279-32.3322-.0277-49.4983M925.6793,309.0174c5.1842-1.3235,10.4222-2.4673,15.5435-4.0008,25.0102-7.4891,45.1826-21.8141,59.8408-43.4626,10.3513-15.2875,15.9737-32.6977,17.588-50.7625,1.7868-19.9948.8694-40.073-6.4403-59.4121-9.3212-24.6606-25.1348-43.47-48.6329-55.3669-11.2939-5.718-23.2603-9.3189-36.0276-11.4219-15.6559-2.5788-30.7493-1.1937-46.5521,1.2219V17.3308h-73.9985v4.2456c0,89.9903.0374,179.9807-.1174,269.9708-.0072,4.2149,2.1993,5.4538,5.2147,6.3652,8.548,2.5838,17.0635,5.3593,25.75,7.3786,9.8368,2.2868,19.7758,4.6089,29.7967,5.5093,12.694,1.1406,25.5204,1.2243,38.2797,1.0462,6.3081-.088,12.5939-1.7849,19.7553-2.8291M564.9791,175.3799c-.3264,1.9352-.913,3.8674-.9346,5.806-.1005,9.0302.1791,18.0691-.1025,27.0916-.3389,10.8634,1.9292,21.3562,5.4927,31.3317,8.8242,24.7021,24.1353,44.0245,47.5096,57.1807,18.2269,10.2589,37.6306,14.5431,58.0025,15.0233,11.7271.2764,23.3792-1.2145,34.9512-4.4546,11.4993-3.2198,22.2537-7.5639,32.1771-13.9645,16.0146-10.3293,28.1747-24.0475,36.5179-41.349,7.6854-15.9377,11.3249-32.6337,11.3505-50.1803.0101-6.9334-.6788-13.8653-.9265-20.8022-.5038-14.1096-5.0058-27.1259-11.1287-39.6008-7.0331-14.3294-17.2453-26.0128-30.0726-35.6194-13.0916-9.8046-27.5603-16.7133-43.4592-19.6015-14.9427-2.7145-29.9885-4.02-45.4971-1.5974-16.2375,2.5364-31.303,7.1436-45.265,15.5826-9.7141,5.8715-18.7678,12.6509-25.3015,22.076-5.6326,8.1251-11.6981,16.1969-15.7069,25.1293-3.7922,8.4501-5.1575,17.9893-7.6072,27.9485M1162.4403,311.9996c3.6013-.3325,7.2019-.9419,10.8041-.9509,18.2769-.0456,35.5535-4.756,52.4716-11.0953,7.8826-2.9537,8.2843-3.7908,8.2843-12.4345v-48.5518c-2.0581.6093-3.5085.8791-4.8268,1.4527-21.7831,9.4774-44.3545,15.3539-68.2782,13.4141-7.6642-.6214-15.5857-2.1795-22.6594-5.0858-13.2211-5.4319-22.4838-15.2816-27.2603-29.6803h137.0415c.6969-5.384,1.9762-10.3942,1.8627-15.3727-.2634-11.5427-.7377-23.1199-1.9728-34.592-1.8374-17.068-8.365-32.4594-18.589-46.2582-11.4463-15.4485-26.6146-26.3412-44.454-32.5409-16.1895-5.6262-33.1019-8.6662-50.6307-6.4269-13.1843,1.6843-25.8439,4.222-38.1154,9.8485-17.6385,8.0873-31.6857,19.9101-42.3669,35.8817-11.2814,16.8688-17.1818,35.7578-18.6002,55.7877-1.6803,23.7274,1.3212,46.8163,13.0195,68.1451,5.6805,10.3568,12.6584,19.8419,21.5436,27.4444,13.3416,11.4157,28.5004,19.5644,45.6793,24.484,15.1901,4.3501,30.4889,5.9886,47.0471,6.5312Z"/>
  <path class="cls-2" d="M76.0514,195.1448c5.9957-14.4775,12.0069-28.545,17.9351-42.6474,9.0519-21.5331,18.001-43.1094,27.0792-64.6314,7.5498-17.8984,15.2227-35.7449,22.8407-53.6145.9467-2.2207,1.6094-4.6331,2.9378-6.5949.8353-1.2336,2.6626-2.5361,4.0522-2.5441,25.9941-.1502,51.9896-.1561,77.9834.0142,1.3993.0092,3.4933,1.5249,4.073,2.8574,7.7299,17.768,15.3558,35.5834,22.7876,53.4783,7.8775,18.9681,15.4079,38.0806,23.301,57.0421,6.4793,15.5652,13.3497,30.9672,19.89,46.5076,4.1271,9.8063,7.8766,19.771,11.9518,29.5999,9.3235,22.4877,18.7521,44.9318,28.1185,67.4017,3.4804,8.3493,6.9064,16.7213,10.5911,25.6497h-89.5535c-24.1883-61.029-48.5993-122.62-73.4162-185.2352-16.1127,40.4503-31.7793,79.7809-47.6129,119.5306h57.34c7.9015,21.9557,15.7598,43.7914,23.7061,65.8718H29.2163c1.9026-4.6329,3.5661-8.6911,5.2353-12.747,6.8595-16.6674,13.6108-33.3804,20.6158-49.9864,5.7211-13.5625,11.7769-26.9836,17.6119-40.4987,1.2744-2.9518,2.2417-6.0361,3.3721-9.4538Z"/>
  <path class="cls-2" d="M546.9999,241.9999c-.0002,16.6661-.0289,32.8323.0277,48.9983.0094,2.6895-.4241,4.1541-3.5069,5.4112-15.9872,6.5193-32.6713,9.8431-49.5948,12.774-15.6154,2.7043-31.2748,3.4194-46.9334,2.6547-20.1841-.9858-39.4644-5.8239-57.5585-15.4888-10.7351-5.7341-20.049-12.921-28.2403-21.7033-9.5748-10.2656-16.3946-22.1808-20.6627-35.5815-4.359-13.6858-6.8938-27.783-6.2841-42.0293.4991-11.661,1.9897-23.3101,5.3634-34.7732,3.8268-13.0027,9.1364-24.9062,17.1503-35.8464,11.4461-15.6257,26.1903-26.7415,43.8656-34.2907,15.3166-6.5418,31.4946-8.7691,47.9061-8.9528,7.616-.0852,15.2527,1.6746,23.4027,2.6612V17.2799h75.0649v224.7201M472,240.3858v-94.9921c-7.6461-.4763-15.0389-1.6795-22.3231-1.2075-9.6619.6261-18.2126,4.6247-25.1502,11.741-7.7542,7.954-11.7734,17.3154-13.9272,28.3131-2.654,13.5512-1.2905,26.0639,3.237,38.9181,6.8554,19.4636,31.792,30.9732,51.7895,26.4001,5.8558-1.3391,6.9833-3.3229,6.3741-9.1728Z"/>
  <path class="cls-2" d="M925.2465,309.055c-6.7286,1.0066-13.0144,2.7035-19.3225,2.7915-12.7593.1781-25.5857.0944-38.2797-1.0462-10.0209-.9004-19.9599-3.2225-29.7967-5.5093-8.6865-2.0193-17.202-4.7948-25.75-7.3786-3.0153-.9114-5.2219-2.1503-5.2147-6.3652.1547-89.9901.1174-179.9804.1174-269.9708v-4.2456h73.9985v68.4819c15.8027-2.4156,30.8961-3.8007,46.5521-1.2219,12.7673,2.103,24.7336,5.7039,36.0276,11.4219,23.4981,11.8969,39.3117,30.7062,48.6329,55.3669,7.3098,19.3391,8.2271,39.4173,6.4403,59.4121-1.6143,18.0647-7.2366,35.475-17.588,50.7625-14.6582,21.6484-34.8306,35.9735-59.8408,43.4626-5.1213,1.5335-10.3593,2.6773-15.9763,4.0384M881,159.5205c0,27.9835.059,55.9673-.0706,83.9502-.0172,3.7005,1.1434,4.9575,4.8467,5.683,7.1523,1.4012,13.9767,1.6767,21.2183-.006,15.0848-3.5049,25.7421-11.9702,32.0165-26.0186,6.8099-15.2475,7.491-30.9765,2.8784-46.8716-3.4119-11.7579-10.3751-20.7107-21.4774-26.6213-10.5314-5.6067-21.382-6.3703-32.8031-4.4991-4.9371.8089-7.8533,2.8001-6.6607,8.4087.3388,1.5936.0519,3.3203.0519,5.9747Z"/>
  <path class="cls-2" d="M564.9876,174.9305c2.4412-9.5097,3.8064-19.049,7.5986-27.499,4.0088-8.9325,10.0743-17.0042,15.7069-25.1293,6.5337-9.4251,15.5873-16.2045,25.3015-22.076,13.962-8.439,29.0275-13.0462,45.265-15.5826,15.5087-2.4225,30.5544-1.117,45.4971,1.5974,15.8989,2.8882,30.3676,9.7969,43.4592,19.6015,12.8273,9.6067,23.0395,21.2901,30.0726,35.6194,6.1229,12.4749,10.6249,25.4912,11.1287,39.6008.2477,6.937.9366,13.8688.9265,20.8022-.0256,17.5465-3.6652,34.2426-11.3505,50.1803-8.3431,17.3016-20.5033,31.0197-36.5179,41.349-9.9233,6.4006-20.6777,10.7447-32.1771,13.9645-11.572,3.2401-23.2242,4.731-34.9512,4.4546-20.3719-.4803-39.7756-4.7644-58.0025-15.0233-23.3744-13.1562-38.6854-32.4786-47.5096-57.1807-3.5635-9.9755-5.8317-20.4683-5.4927-31.3317.2816-9.0225.002-18.0614.1025-27.0916.0215-1.9386.6082-3.8708.9431-6.2554M712.9884,174.6892c-2.449-4.8225-4.2338-10.1511-7.4584-14.3825-16.5376-21.7-49.7358-19.3812-61.8083,6.5889-9.2473,19.8927-9.0784,40.3039-.5049,60.4102,3.4431,8.0746,9.3801,14.0052,17.4782,18.2705,6.5959,3.4741,13.2092,3.4081,20.0764,3.4148,6.7103.0065,12.4283-2.8679,17.4909-6.8469,10.3206-8.1115,15.1512-19.159,16.865-31.9993,1.5673-11.7433,1.428-23.2606-2.1388-35.4557Z"/>
  <path class="cls-2" d="M1161.9554,311.9995c-16.0734-.5426-31.3722-2.1811-46.5623-6.5312-17.179-4.9197-32.3378-13.0684-45.6793-24.484-8.8851-7.6025-15.863-17.0876-21.5436-27.4444-11.6984-21.3288-14.6998-44.4177-13.0195-68.1451,1.4185-20.0299,7.3188-38.9189,18.6002-55.7877,10.6813-15.9716,24.7284-27.7944,42.3669-35.8817,12.2715-5.6264,24.931-8.1641,38.1154-9.8485,17.5288-2.2393,34.4413.8007,50.6307,6.4269,17.8394,6.1997,33.0077,17.0924,44.454,32.5409,10.224,13.7989,16.7516,29.1902,18.589,46.2582,1.2351,11.4721,1.7094,23.0493,1.9728,34.592.1135,4.9785-1.1658,9.9888-1.8627,15.3727h-137.0415c4.7765,14.3987,14.0392,24.2484,27.2603,29.6803,7.0737,2.9063,14.9952,4.4643,22.6594,5.0858,23.9237,1.9398,46.4951-3.9367,68.2782-13.4141,1.3182-.5736,2.7687-.8434,4.8268-1.4527v48.5518c0,8.6438-.4017,9.4809-8.2843,12.4345-16.9181,6.3394-34.1947,11.0497-52.4716,11.0953-3.6022.009-7.2028.6184-11.2889.9509M1126.4421,145.9378c-9.2546,6.1655-13.5392,15.3604-16.1583,25.8705h69.1693c-2.6348-15.9514-11.5103-28.5576-29.1732-31.485-8.1613-1.3526-16.4156-.6488-23.8378,5.6145Z"/>
  <path class="cls-1" d="M472,240.8683c.6093,5.3674-.5183,7.3512-6.3741,8.6903-19.9976,4.5731-44.9341-6.9366-51.7895-26.4001-4.5275-12.8542-5.891-25.3669-3.237-38.9181,2.1538-10.9977,6.173-20.359,13.9272-28.3131,6.9376-7.1163,15.4884-11.115,25.1502-11.741,7.2842-.472,14.677.7312,22.3231,1.2075v95.4745Z"/>
  <path class="cls-1" d="M881,159.0262c0-2.16.2869-3.8867-.0519-5.4804-1.1926-5.6087,1.7236-7.5999,6.6607-8.4087,11.4211-1.8712,22.2717-1.1075,32.8031,4.4991,11.1022,5.9106,18.0654,14.8634,21.4774,26.6213,4.6125,15.8951,3.9315,31.6242-2.8784,46.8716-6.2745,14.0484-16.9318,22.5137-32.0165,26.0186-7.2416,1.6826-14.066,1.4071-21.2183.006-3.7033-.7255-4.8638-1.9825-4.8467-5.683.1296-27.9829.0707-55.9667.0706-84.4445Z"/>
  <path class="cls-1" d="M713.0001,175.1006c3.5552,11.7837,3.6944,23.301,2.1271,35.0443-1.7137,12.8403-6.5444,23.8878-16.865,31.9993-5.0626,3.979-10.7806,6.8534-17.4909,6.8469-6.8672-.0067-13.4805.0593-20.0764-3.4148-8.0981-4.2653-14.0351-10.1959-17.4782-18.2705-8.5735-20.1064-8.7424-40.5175.5049-60.4102,12.0724-25.9701,45.2707-28.2888,61.8083-6.5889,3.2247,4.2313,5.0095,9.56,7.4701,14.7938Z"/>
  <path class="cls-1" d="M1126.7331,145.7098c7.1311-6.0353,15.3855-6.7392,23.5468-5.3865,17.663,2.9274,26.5385,15.5336,29.1732,31.485h-69.1693c2.6191-10.51,6.9037-19.7049,16.4493-26.0985Z"/>
</svg>