<svg width="500" height="500" viewBox="0 0 500 500" fill="none" xmlns="http://www.w3.org/2000/svg">
<path d="M300.458 284.807C276.34 302.585 241.384 312.066 211.285 312.066C169.086 312.066 131.091 296.459 102.35 270.502C100.09 268.462 102.115 265.678 104.823 267.27C135.839 285.317 174.192 296.176 213.814 296.176C240.529 296.176 269.925 290.65 296.95 279.177C301.036 277.441 304.447 281.851 300.458 284.814" fill="#FF9900"/>
<path d="M310.484 273.334C307.41 269.392 290.108 271.473 282.335 272.397C279.972 272.686 279.606 270.626 281.736 269.144C295.517 259.442 318.139 262.247 320.771 265.492C323.411 268.765 320.082 291.436 307.135 302.254C305.15 303.915 303.248 303.033 304.137 300.828C307.045 293.565 313.571 277.289 310.477 273.334" fill="#FF9900"/>
<path d="M282.879 200.657V191.224C282.879 189.798 283.961 188.84 285.264 188.84H327.483C328.841 188.84 329.922 189.818 329.922 191.224V199.3C329.902 200.657 328.765 202.428 326.746 205.226L304.868 236.462C312.999 236.262 321.578 237.474 328.951 241.63C330.611 242.567 331.066 243.945 331.19 245.295V255.356C331.19 256.727 329.674 258.34 328.083 257.506C315.094 250.698 297.839 249.954 283.479 257.575C282.018 258.367 280.482 256.782 280.482 255.404V245.847C280.482 244.31 280.502 241.692 282.032 239.363L307.376 203.014H285.319C283.961 203.014 282.879 202.056 282.879 200.65" fill="#221F1F"/>
<path d="M128.872 259.497H116.028C114.801 259.408 113.823 258.484 113.733 257.313V191.389C113.733 190.073 114.836 189.026 116.207 189.026H128.183C129.43 189.081 130.422 190.039 130.512 191.231V199.851H130.746C133.875 191.52 139.746 187.641 147.656 187.641C155.567 187.641 160.714 191.527 164.332 199.851C167.439 191.52 174.502 187.641 182.068 187.641C187.45 187.641 193.342 189.86 196.939 194.849C201.004 200.396 200.17 208.451 200.17 215.514L200.15 257.12C200.15 258.436 199.047 259.504 197.676 259.504H184.852C183.571 259.414 182.537 258.381 182.537 257.12V222.17C182.537 219.386 182.792 212.454 182.179 209.815C181.221 205.391 178.347 204.144 174.626 204.144C171.519 204.144 168.266 206.218 166.95 209.546C165.634 212.868 165.758 218.435 165.758 222.177V257.113C165.758 258.429 164.656 259.497 163.284 259.497H150.461C149.158 259.408 148.145 258.374 148.145 257.113L148.125 222.177C148.125 214.825 149.337 204.006 140.214 204.006C131.091 204.006 131.346 214.556 131.346 222.177V257.113C131.346 258.429 130.243 259.497 128.872 259.497" fill="#221F1F"/>
<path d="M366.271 187.634C385.33 187.634 395.646 203.999 395.646 224.809C395.646 245.619 384.249 260.868 366.271 260.868C348.293 260.868 337.364 244.503 337.364 224.106C337.364 203.71 347.68 187.634 366.271 187.634ZM366.381 201.092C356.913 201.092 356.321 213.991 356.321 222.032C356.321 230.074 356.197 247.287 366.278 247.287C376.359 247.287 376.703 233.416 376.703 224.961C376.703 219.4 376.469 212.751 374.788 207.472C373.341 202.883 370.467 201.098 366.388 201.098" fill="#221F1F"/>
<path d="M420.356 259.497H407.567C406.285 259.408 405.252 258.374 405.252 257.113L405.231 191.176C405.341 189.963 406.402 189.026 407.705 189.026H419.612C420.735 189.081 421.652 189.839 421.906 190.866V200.947H422.141C425.738 191.934 430.775 187.634 439.643 187.634C445.404 187.634 451.027 189.708 454.637 195.4C458 200.678 458 209.546 458 215.92V257.416C457.855 258.574 456.787 259.49 455.526 259.49H442.648C441.476 259.401 440.498 258.532 440.374 257.416V221.612C440.374 214.404 441.207 203.855 432.332 203.855C429.204 203.855 426.337 205.949 424.904 209.133C423.099 213.164 422.864 217.174 422.864 221.619V257.12C422.844 258.436 421.727 259.504 420.356 259.504" fill="#221F1F"/>
<path d="M247.585 228.007V225.223C238.297 225.223 228.491 227.207 228.491 238.157C228.491 243.704 231.365 247.459 236.298 247.459C239.909 247.459 243.148 245.24 245.187 241.623C247.716 237.178 247.592 233.002 247.592 228L247.585 228.007ZM260.547 259.304C259.699 260.062 258.473 260.117 257.515 259.614C253.249 256.072 252.491 254.433 250.142 251.049C243.099 258.236 238.111 260.386 228.967 260.386C218.162 260.386 209.748 253.723 209.748 240.369C209.748 229.943 215.406 222.845 223.44 219.379C230.414 216.306 240.15 215.769 247.592 214.914V213.254C247.592 210.201 247.826 206.59 246.042 203.951C244.471 201.588 241.473 200.609 238.834 200.609C233.942 200.609 229.566 203.117 228.498 208.32C228.284 209.478 227.43 210.614 226.279 210.67L213.814 209.333C212.766 209.099 211.609 208.251 211.898 206.639C214.765 191.555 228.402 187 240.612 187C246.862 187 255.027 188.661 259.961 193.395C266.211 199.231 265.618 207.018 265.618 215.486V235.504C265.618 241.519 268.113 244.158 270.462 247.411C271.296 248.569 271.475 249.96 270.428 250.822C267.809 253.006 263.144 257.072 260.581 259.346L260.547 259.311" fill="#221F1F"/>
<path d="M80.8369 228.007V225.223C71.5482 225.223 61.7427 227.207 61.7427 238.157C61.7427 243.704 64.6162 247.459 69.5499 247.459C73.1606 247.459 76.3993 245.24 78.4389 241.623C80.9678 237.178 80.8438 233.002 80.8438 228L80.8369 228.007ZM93.7983 259.304C92.9508 260.062 91.7242 260.117 90.7664 259.614C86.5011 256.072 85.7431 254.433 83.3934 251.049C76.351 258.236 71.3622 260.386 62.2182 260.386C51.4136 260.386 43 253.723 43 240.369C43 229.943 48.6573 222.845 56.6918 219.379C63.6652 216.306 73.4018 215.769 80.8438 214.914V213.254C80.8438 210.201 81.0781 206.59 79.2934 203.951C77.7223 201.588 74.7248 200.609 72.0857 200.609C67.1933 200.609 62.8177 203.117 61.7496 208.32C61.536 209.478 60.6816 210.614 59.5308 210.67L47.0655 209.333C46.0181 209.099 44.8605 208.251 45.1499 206.639C48.0164 191.555 61.6532 187 73.8635 187C80.1134 187 88.2789 188.661 93.2126 193.395C99.4625 199.231 98.8699 207.018 98.8699 215.486V235.504C98.8699 241.519 101.364 244.158 103.714 247.411C104.548 248.569 104.727 249.96 103.68 250.822C101.061 253.006 96.3961 257.072 93.8328 259.346L93.7983 259.311" fill="#221F1F"/>
</svg>
