<?xml version="1.0" encoding="UTF-8"?>
<svg id="Layer_1" data-name="Layer 1" xmlns="http://www.w3.org/2000/svg" xmlns:xlink="http://www.w3.org/1999/xlink" viewBox="0 0 48 48">
  <defs>
    <style>
      .cls-1 {
        fill: url(#linear-gradient);
      }

      .cls-1, .cls-2, .cls-3, .cls-4, .cls-5 {
        stroke-width: 0px;
      }

      .cls-2 {
        fill: #8a8a8d;
      }

      .cls-3 {
        fill: url(#linear-gradient-2);
      }

      .cls-4 {
        fill: url(#linear-gradient-3);
      }

      .cls-5 {
        fill: url(#linear-gradient-4);
      }
    </style>
    <linearGradient id="linear-gradient" x1="19.5336" y1="43.2481" x2="24.2425" y2="22.6349" gradientTransform="translate(0 50) scale(1 -1)" gradientUnits="userSpaceOnUse">
      <stop offset="0" stop-color="#35ab4a"/>
      <stop offset=".297" stop-color="#31a145"/>
      <stop offset=".798" stop-color="#288739"/>
      <stop offset="1" stop-color="#237a33"/>
    </linearGradient>
    <linearGradient id="linear-gradient-2" x1="20.2107" y1="29.7245" x2="21.5583" y2="1.2177" gradientTransform="translate(0 50) scale(1 -1)" gradientUnits="userSpaceOnUse">
      <stop offset="0" stop-color="#f14e5d"/>
      <stop offset=".499" stop-color="#ea3d4f"/>
      <stop offset="1" stop-color="#e12138"/>
    </linearGradient>
    <linearGradient id="linear-gradient-3" x1="28.6827" y1="35.6303" x2="31.0593" y2="16.6643" gradientTransform="translate(0 50) scale(1 -1)" gradientUnits="userSpaceOnUse">
      <stop offset="0" stop-color="#ffd844"/>
      <stop offset=".519" stop-color="#ffc63f"/>
      <stop offset="1" stop-color="#ffb03a"/>
    </linearGradient>
    <linearGradient id="linear-gradient-4" x1="16.919" y1="41.5609" x2="18.0545" y2="17.1806" gradientTransform="translate(0 50) scale(1 -1)" gradientUnits="userSpaceOnUse">
      <stop offset=".003" stop-color="#0090e6"/>
      <stop offset="1" stop-color="#0065a0"/>
    </linearGradient>
  </defs>
  <path class="cls-1" d="M16.7471,7.1735c-1.6595-.9934-3.6239-.1546-4.3354,1.5265l10.8884,11.6763,5.5526-5.9541-12.1056-7.2487Z"/>
  <path class="cls-3" d="M28.8527,26.3303l-5.5526-5.9541-10.8884,11.6763c.7121,1.6817,2.6765,2.5199,4.3354,1.5272l12.1056-7.2494Z"/>
  <path class="cls-4" d="M33.9526,23.278c1.0595-.6341,1.5893-1.7676,1.5899-2.9017-.0006-1.1341-.5304-2.2683-1.5899-2.9017l-5.0999-3.0523-5.5526,5.9541,5.5526,5.9541,5.0999-3.0523Z"/>
  <path class="cls-5" d="M12.4117,8.7c-.1737.4128-.2772.8779-.2772,1.3772v20.5948c0,.5027.101.9664.2772,1.3805l10.8872-11.6783-10.8872-11.6743Z"/>
  <g>
    <path class="cls-2" d="M10.124,40.4268c-.0444-.1621-.1035-.3086-.1777-.4375-.0742-.1299-.1626-.2402-.2646-.332-.1025-.0918-.2192-.1621-.3501-.21-.1304-.0488-.2739-.0723-.4297-.0723-.2646,0-.5029.0791-.7153.2383-.2129.1582-.3804.3906-.5034.6973-.123.3057-.1846.6797-.1846,1.123,0,.4443.0615.8193.1855,1.126.124.3076.2935.54.5093.6992.2153.1592.4609.2383.7358.2383.2554,0,.478-.0605.6685-.1826.1904-.1211.3379-.293.4429-.5146.1045-.2227.1567-.4844.1567-.7861l.1836.04h-1.3438v-.6816h1.8462v.623c0,.4609-.084.8594-.2515,1.1982-.167.3379-.3979.5986-.6924.7822-.2944.1846-.6309.2764-1.0103.2764-.4248,0-.7974-.1143-1.1177-.3428s-.5698-.5527-.749-.9727c-.1787-.4209-.2681-.9199-.2681-1.498,0-.4375.0518-.8301.1558-1.1777s.2505-.6436.439-.8877c.189-.2432.4116-.4297.6675-.5586.2563-.1299.5361-.1943.8403-.1943.2539,0,.4907.0439.71.1309.2192.0879.415.2119.5869.3721.1724.1611.3149.3516.4277.5713.1133.2207.1895.4648.2295.7324h-.7271Z"/>
    <path class="cls-2" d="M13.2109,44.2598c-.3306,0-.6187-.0879-.8647-.2646s-.437-.4238-.5732-.7422c-.1362-.3174-.2041-.6885-.2041-1.1133,0-.4268.0679-.7988.2041-1.1191.1362-.3193.3271-.5674.5732-.7441.2461-.1758.5342-.2646.8647-.2646.3301,0,.6182.0889.8643.2646.2461.1768.4375.4248.5732.7441.1362.3203.2041.6924.2041,1.1191,0,.4248-.0679.7959-.2041,1.1133-.1357.3184-.3271.5654-.5732.7422s-.5342.2646-.8643.2646ZM13.2129,43.5879c.2144,0,.3916-.0664.5322-.1982s.2451-.3076.313-.5273.1021-.4609.1021-.7256c0-.2617-.0342-.5029-.1021-.7236s-.1724-.3975-.313-.5312-.3179-.2012-.5322-.2012c-.2153,0-.394.0674-.5352.2012-.1416.1338-.2461.3105-.3145.5312-.0679.2207-.1021.4619-.1021.7236,0,.2646.0342.5059.1021.7256.0684.2197.1729.3955.3145.5273.1411.1318.3198.1982.5352.1982Z"/>
    <path class="cls-2" d="M17.1001,44.2598c-.3306,0-.6187-.0879-.8647-.2646s-.437-.4238-.5732-.7422c-.1362-.3174-.2041-.6885-.2041-1.1133,0-.4268.0679-.7988.2041-1.1191.1362-.3193.3271-.5674.5732-.7441.2461-.1758.5342-.2646.8647-.2646.3301,0,.6182.0889.8643.2646.2461.1768.4375.4248.5732.7441.1362.3203.2041.6924.2041,1.1191,0,.4248-.0679.7959-.2041,1.1133-.1357.3184-.3271.5654-.5732.7422s-.5342.2646-.8643.2646ZM17.1021,43.5879c.2144,0,.3916-.0664.5322-.1982s.2451-.3076.313-.5273.1021-.4609.1021-.7256c0-.2617-.0342-.5029-.1021-.7236s-.1724-.3975-.313-.5312-.3179-.2012-.5322-.2012c-.2153,0-.394.0674-.5352.2012-.1416.1338-.2461.3105-.3145.5312-.0679.2207-.1021.4619-.1021.7236,0,.2646.0342.5059.1021.7256.0684.2197.1729.3955.3145.5273.1411.1318.3198.1982.5352.1982Z"/>
    <path class="cls-2" d="M20.9824,45.8037c-.2798,0-.5205-.042-.7212-.1279-.2012-.0859-.3652-.1992-.4922-.3398-.127-.1416-.2217-.2959-.2842-.4629l.5894-.2842c.041.0781.0967.1621.166.25.0698.0889.1646.1641.2847.2266.1196.0625.2744.0938.4644.0938.2598,0,.4746-.0732.644-.2207.1699-.1475.2549-.3818.2549-.7031v-.8076h-.0439c-.041.0869-.1001.1846-.1777.291-.0771.1074-.1831.2002-.3174.2783-.1348.0791-.3096.1182-.5249.1182-.2783,0-.5288-.0762-.7515-.2285-.2222-.1533-.3979-.3789-.5273-.6777-.1289-.2988-.1938-.667-.1938-1.1035,0-.4375.064-.8125.1914-1.125.1279-.3115.3032-.5518.5264-.7188.2231-.166.4766-.25.7593-.25.2188,0,.395.043.5298.127.1343.085.2397.1836.3154.2959s.1338.2119.1753.2969h.0503v-.666h.6719v4.2021c0,.3535-.0703.6436-.2109.8701s-.3306.3945-.5698.5029c-.2393.1094-.5088.1631-.8081.1631ZM20.9751,43.4512c.1973,0,.3643-.0537.5015-.1621.1367-.1074.2407-.2627.3115-.4658.0713-.2021.1069-.4453.1069-.7285,0-.2773-.0352-.5205-.1055-.7314-.0703-.21-.1738-.375-.3096-.4932-.1362-.1191-.3042-.1787-.5049-.1787-.2061,0-.3779.0625-.5156.1865s-.2412.292-.311.5039c-.0693.2129-.104.4502-.104.7129,0,.2695.0352.5059.1055.709s.1743.3623.313.4766c.1382.1143.3091.1709.5122.1709Z"/>
    <path class="cls-2" d="M24.1768,38.6953v5.4814h-.6855v-5.4814h.6855Z"/>
    <path class="cls-2" d="M26.6172,44.2598c-.3477,0-.6455-.0869-.8955-.2607s-.4434-.4199-.5781-.7363c-.1357-.3164-.2031-.6885-.2031-1.1152,0-.4209.0674-.792.2031-1.1133.1348-.3213.3242-.5713.5684-.752s.5293-.2705.8564-.2705c.1992,0,.3916.0381.5781.1152s.3535.1973.502.3613.2656.377.3516.6387c.085.2607.1279.5781.1279.9512v.2842h-2.7998v-.5996h2.1279c0-.2109-.0371-.3975-.1104-.5615-.0732-.1631-.1758-.292-.3086-.3867-.1318-.0938-.2861-.1416-.4639-.1416-.1924,0-.3604.0547-.5039.165-.1426.1094-.2529.252-.3301.4277s-.1152.3662-.1152.5713v.4688c0,.2754.041.5088.125.7012.083.1934.1992.3398.3496.4404.1494.1006.3242.1514.5254.1514.1299,0,.248-.0215.3555-.0654.1064-.0439.1992-.1094.2773-.1973.0781-.0869.1377-.1953.1787-.3232l.6484.1357c-.0518.2236-.1445.4189-.2783.585-.1338.167-.3008.2969-.502.3887s-.4297.1377-.6865.1377Z"/>
    <path class="cls-2" d="M30.6572,44.1768v-5.4814h1.6748c.3652,0,.668.0771.9082.2324.2393.1553.4189.3672.5381.6357s.1797.5703.1797.9062c0,.3369-.0605.6396-.1807.9082s-.2998.4814-.541.6377-.543.2344-.9072.2344h-1.1514v-.7021h1.0869c.2314,0,.4189-.0469.5625-.1396.1436-.0938.249-.2217.3164-.3848.0674-.1621.1006-.3467.1006-.5537s-.0332-.3906-.1006-.5518c-.0674-.1602-.1729-.2861-.3174-.377s-.335-.1367-.5703-.1367h-.8896v4.7725h-.709Z"/>
    <path class="cls-2" d="M35.416,38.6953v5.4814h-.6855v-5.4814h.6855Z"/>
    <path class="cls-2" d="M37.3633,44.2676c-.2236,0-.4258-.0488-.6055-.1455-.1807-.0977-.3232-.2393-.4277-.4248s-.1572-.4131-.1572-.6826c0-.2314.0381-.4229.1143-.5723.0771-.1504.1797-.2686.3096-.3564.1299-.0869.2754-.1533.4365-.1973.1602-.0449.3232-.0791.4902-.1025.2109-.0283.3818-.0518.5137-.0703s.2275-.0498.2871-.0928.0889-.1123.0889-.209v-.0186c0-.2334-.0557-.415-.168-.543-.1123-.1289-.2803-.1934-.502-.1934-.2305,0-.4121.0596-.5439.1787-.1328.1182-.2236.25-.2744.3945l-.6445-.1709c.0771-.25.1885-.4521.3359-.6064s.3184-.2666.5107-.3379c.1924-.0703.3945-.1055.6074-.1055.1406,0,.29.0195.4482.0576s.3066.1084.4453.21c.1377.1016.252.2471.3398.4355.0889.1875.1338.4316.1338.7314v2.7305h-.6699v-.5625h-.0273c-.0449.1035-.1113.2061-.2002.3057-.0879.0996-.2021.1826-.3408.249-.1396.0654-.3066.0986-.5.0986ZM37.5117,43.625c.1895,0,.3525-.043.4873-.1309.1357-.0869.2393-.2021.3096-.3438.0713-.1416.1074-.2939.1074-.4561v-.5303c-.0254.0283-.0723.0547-.1416.0791-.0693.0234-.1484.0439-.2373.0615-.0889.0166-.1748.0322-.2588.0449-.084.0137-.1543.0244-.2109.0342-.1338.0195-.2549.0527-.3643.0986-.1084.0469-.1963.1133-.2607.1992-.0654.0869-.0977.2012-.0977.3438,0,.1982.0625.3477.1885.4492.125.1006.2842.1504.4785.1504Z"/>
    <path class="cls-2" d="M40.4473,45.7188c-.1025,0-.1963-.0098-.2803-.0283s-.1465-.0391-.1875-.0605l.165-.6553c.125.0391.2363.0557.335.0508.0977-.0059.1846-.0479.2598-.1289.0762-.0801.1426-.2109.2012-.3936l.085-.2725-1.2891-4.165h.7334l.8926,3.1904h.0361l.8926-3.1904h.7363l-1.4521,4.6602c-.0674.2139-.1523.3955-.2568.5449-.1035.1484-.2275.2607-.3711.3359-.1436.0742-.3105.1123-.5.1123Z"/>
  </g>
</svg>