<?xml version="1.0" encoding="UTF-8"?>
<svg id="Layer_1" data-name="Layer 1" xmlns="http://www.w3.org/2000/svg" viewBox="0 0 1920 366.336">
  <defs>
    <style>
      .cls-1 {
        fill: #4c6971;
      }

      .cls-2 {
        fill: none;
      }

      .cls-3 {
        fill: #009881;
      }
    </style>
  </defs>
  <path class="cls-2" d="M653.568,366.336c-217.3655,0-434.7311,0-652.5736-.1307-.646-.3031-.8184-.472-.9944-.6373,0-24.0855,0-48.1711.1233-72.7129.2858-.5975.4448-.7425.9619-.9226,13.663-.0525,26.9646-.0649,40.266-.0988,5.4615-.014,5.4627-.0352,5.494-5.6366.0071-1.279.0027-2.558.0027-3.8371,0-91.4499-.0009-182.8997.0053-274.3496.0002-2.4289.0774-4.8579.2287-7.4047.2553-.2771.3966-.4397.534-.6057,479.5096,0,959.0191,0,1438.9849.1233.5976.2858.7425.4448.9225.9619.0498,1.1289.0841,1.8963.0842,2.6637.0034,93.5272.0046,187.0544.0016,280.5817,0,1.0228.1683,2.115-.1239,3.056-1.0926,3.5175.3115,4.5214,3.7214,4.4914,12.9215-.1134,25.845-.117,38.7663.0044,3.2519.0305,4.8295-.9829,4.5072-4.3943-.1437-1.5214-.0165-3.0683-.0165-4.6036.0004-94.2949.0004-188.5898.0004-282.8847h385.536c0,25.8769,0,51.7548-.36,77.9843-16.227.3543-32.0942.4052-47.9608.3138-2.7831-.016-4.5394.8346-5.6484,3.4722-1.6817,3.9989-3.6761,7.8649-5.4486,11.8272-13.863,30.9897-27.8314,61.9333-41.4669,93.0229-3.5743,8.1495-6.195,16.7278-9.0182,25.1877-.5865,1.757.0641,3.8166-2.8373,3.9929-2.8198.1714-3.5093-1.3616-4.4044-3.6475-5.2986-13.5304-10.6271-27.056-16.3301-40.4193-6.0105-14.0839-12.4404-27.9891-18.7082-41.963-7.104-15.8389-14.2682-31.6509-21.3144-47.5154-1.2384-2.7885-2.889-4.0223-6.1043-3.9865-14.5856.1624-29.1739.0611-43.7612.0856-1.3313.0022-2.6621.2235-4.383.3781.5051,1.4738.7459,2.4408,1.155,3.3303,6.1888,13.4531,12.3662,26.9114,18.6122,40.3378,10.7168,23.0362,21.4594,46.0604,32.2288,69.0721,11.7443,25.0949,23.5635,50.1549,35.2176,75.2914.6902,1.4889.8308,3.8066.1729,5.2616-12.4148,27.4482-25.0341,54.8038-37.4775,82.2393-1.7511,3.8611-2.8033,8.0391-4.1792,12.0704-345.3655,0-690.7311,0-1036.4483-.3599-.3516-60.0065-.447-119.6533-.2717-179.2993.0356-12.123,1.3617-24.1467,5.7503-35.7051,5.8597-15.4325,16.9207-25.5709,32.1161-30.6894,14.342-4.8309,29.0996-5.2196,43.3233,1.1905,6.4757,2.9184,13.2246,5.4786,17.9902,11.2664,9.705,11.7865,14.0043,25.8854,15.6658,40.5119,1.6018,14.1007.5793,28.4102-5.1158,41.7537-2.6188,6.1361-5.2673,12.907-9.841,17.4293-10.1517,10.0378-23.2035,14.5937-37.5491,14.8298-9.7251.1601-19.4601.2154-29.1802-.0566-3.9188-.1096-4.9907,1.0764-4.9173,4.9572.2226,11.7699.3211,23.5603-.1802,35.3152-.1577,3.6974.7079,4.421,3.9563,4.3923,11.1348-.0982,22.275.1529,33.4058-.0786,14.6467-.3045,28.7814-3.0415,42.4196-8.7342,15.7487-6.5736,27.7707-17.3508,37.2257-31.2213,11.0901-16.2694,16.2365-34.7008,17.447-54.026,1.4042-22.4182.1634-44.7334-8.2298-66.0265-6.2914-15.9609-15.4492-29.9052-29.2528-40.4073-22.3104-16.9743-47.5578-21.4659-74.6718-16.7331-16.0015,2.7931-29.4963,10.539-40.0338,22.9948-2.6657,3.1511-4.9109,6.3259-9.7894,5.0503-.2273-.2357-.3615-.366-.5295-.8548-.0551-6.7572-.1455-13.1529-.0737-19.5468.0303-2.6904-.867-3.9833-3.7501-3.9666-13.1738.0763-26.3484.0672-39.5224.011-2.6604-.0113-3.7042,1.1604-3.5873,3.7157.0759,1.659-.0029,3.3248-.003,4.9875-.0009,90.4297,0,180.8593-.006,271.289-.0002,2.429-.0773,4.858-.2287,7.405-.2553.2771-.3967.4397-.5341.6057M117.4742,180.8641c-.0002-.1566-.0003-.3131.2704-.9035,25.6548-33.5277,51.3095-67.0555,77.2354-100.9376-1.3205-.358-1.7973-.5996-2.2744-.6003-17.6578-.0275-35.3159-.0778-52.9726.0544-1.2584.0094-2.8733,1.0948-3.7022,2.1618-7.5885,9.7671-15.0299,19.6484-22.533,29.482-12.7646,16.7295-25.6046,33.4022-38.2615,50.2127-2.439,3.2394-5.7472,6.0218-5.4475,10.9635.4099,6.7571-.0421,13.5627.194,20.3364.0699,2.0051.7718,4.2886,1.931,5.9107,21.8783,30.6132,43.8412,61.1663,65.9265,91.6304.9963,1.3743,3.3041,2.5231,5.0148,2.5421,16.8887.1874,33.7804.1223,50.6712.0929,1.065-.0019,2.1295-.3023,3.6858-.5385-.7245-1.3864-1.0724-2.328-1.6436-3.1056-21.4452-29.1931-42.9283-58.3584-64.3604-87.5611-4.6666-6.3586-9.1607-12.8438-13.7337-19.7403M1046.4606,162.2937c-.134.1306-.2641.2649-1.1149.4633-25.0846.0198-50.1691.0391-75.2537.0596q-7.0137.0057-7.0193,7.1969c-.0028,6.9111-.0102,13.8222.0036,20.7332.0115,5.8269.0237,5.8541,5.6644,5.8552,39.5468.0081,79.0935.0086,118.6403-.0014,5.4466-.0014,5.4625-.0367,5.4776-5.6555.0169-6.2711.0216-12.5424.0023-18.8135-.0577-18.8455-4.1122-36.6692-13.4609-53.1784-10.1421-17.9102-24.8783-30.5768-43.8415-38.3061-21.7333-8.8584-44.2285-9.8101-66.9559-5.1711-22.9668,4.6878-42.1668,16.2722-57.0155,34.3595-5.2868,6.44-9.5384,13.9268-13.2168,21.4472-6.5615,13.415-9.6552,27.851-9.7508,42.8065-.0608,9.4809.1488,18.9747.6228,28.4434.2723,5.4396.9264,10.9248,2.0786,16.2443,4.8311,22.3025,17.0709,40.2819,33.8096,55.2245,8.5066,7.5938,18.4496,13.3862,29.3843,16.8544,16.1742,5.13,32.6978,7.4233,49.7969,5.7622,12.4794-1.2123,24.444-4.1228,35.7283-9.2469,12.989-5.8982,23.5788-15.1491,32.3986-26.3402,7.3479-9.3235,12.6407-19.7792,16.2999-31.0439,1.4366-4.4226.9815-4.9373-3.5535-4.9476-12.9263-.0291-25.853.04-38.7786-.0499-2.5804-.0179-4.1955.7909-5.5576,3.0842-2.2359,3.7643-4.3551,7.8563-7.4823,10.7868-11.6138,10.8833-25.5415,15.6917-41.5617,15.4384-23.722-.3751-43.6062-14.215-51.2587-36.7263-6.6809-19.653-6.8488-39.6255-1.772-59.6086,3.7563-14.7851,11.7113-27.004,24.8503-35.0746,11.191-6.874,23.6013-8.7342,36.7401-7.8087,27.4747,1.9354,44.4141,20.6094,46.0959,47.213M358.1337,273.7314c.1307.1339.2649.2642.4633,1.1151.0197,3.1991.0513,6.3981.0567,9.5971q.0124,7.39,7.2081,7.3954c11.007.003,22.014.0026,33.0209.0002,7.383-.0016,7.4199-.0045,7.3831-7.2121-.2455-48.1001-.3282-96.2026-.9587-144.2978-.0949-7.2406-1.9987-14.7176-4.4043-21.6186-6.9196-19.85-21.583-32.1343-40.9842-38.947-18.853-6.6202-38.3502-7.8528-58.1707-6.1635-15.609,1.3303-30.3374,5.2772-44.0527,12.9635-19.655,11.015-31.9519,27.3176-36.2127,49.5678-.6209,3.242.4306,4.4497,3.6983,4.4322,14.3342-.0766,28.6693-.0709,43.0035.0018,2.582.0131,3.8809-.9801,4.7168-3.4389,3.0376-8.9353,9.4658-14.7312,18.0333-18.1103,13.6247-5.3737,27.665-5.5377,41.6881-2.0238,8.2284,2.0619,15.2306,6.4035,20.0087,13.7801,4.0846,6.306,5.9445,13.2831,5.9814,20.6735.1131,22.6534-.2214,45.3126.2063,67.9584.126,6.6737-3.0367,10.7048-7.4259,14.5765-.8584.7572-1.8231,1.3942-2.6785,2.1544-17.6067,15.645-37.6873,24.243-61.6481,21.0546-10.757-1.4314-20.1982-5.5869-25.8964-15.6209-3.4733-6.1162-4.2056-12.6705-3.1348-19.5713,1.215-7.8292,4.6483-14.1908,11.2572-18.783,7.3812-5.1288,15.8749-6.2385,24.4361-6.5162,10.9956-.3567,22.0119-.166,33.0177-.0562,3.1135.031,4.3492-1.0507,4.2969-4.2325-.1366-8.3169-.161-16.6401.0147-24.9557.0733-3.4702-1.1108-4.7322-4.6401-4.6911-12.797.1491-25.6125-.3308-38.3904.1853-8.8716.3584-17.8295,1.3147-26.5069,3.1486-15.7847,3.3359-29.5858,10.6919-39.5735,23.7516-10.8442,14.1796-14.2715,30.398-12.3692,48.0309,2.1172,19.6252,10.9905,35.242,27.4591,46.0256,19.1767,12.5568,40.6031,15.2039,62.8605,12.2077,18.4387-2.4821,35.102-9.7275,50.2319-20.4498,2.483-1.7597,4.8884-2.5829,8.0046-1.9317M1400.7341,246.8769c-2.411,1.4216-4.6914,3.1633-7.2555,4.2099-11.5014,4.6946-23.4683,5.4851-35.7031,3.9341-17.0121-2.1566-30.4-9.3615-36.8057-26.2657-1.0808-2.852-2.7067-3.813-5.7044-3.7833-13.4346.133-26.8712.0437-40.3071.0636-3.6522.0054-5.0249,1.8385-4.4377,5.5577,2.9303,18.558,12.9293,33.1312,26.6132,45.1641,10.0694,8.8545,22.0137,14.4116,35.3274,17.3699,18.4076,4.0902,36.8258,5.4347,55.4485,2.4996,14.8396-2.3388,29.242-6.1379,41.5125-15.4245,10.1307-7.667,18.5515-16.7591,23.137-28.9026,3.8811-10.2778,5.5713-20.7636,4.5256-31.8332-.8186-8.6655-2.6075-16.9025-6.9032-24.4607-7.0342-12.3765-18.0026-19.8784-31.1108-24.6647-17.2895-6.3129-35.5887-6.0647-53.5073-8.2561-9.7553-1.193-19.5381-2.0608-28.6733-6.133-6.8229-3.0415-11.3777-7.9764-11.9356-15.555-.563-7.6444,2.5662-14.1289,8.6462-18.6783,8.2248-6.1545,17.9113-8.369,28.0119-8.7886,9.4817-.3939,18.5477,1.3366,26.8742,6.1036,2.9516,1.6898,6.6408,2.9263,8.5202,5.4616,2.968,4.0038,4.6066,8.9755,7.0072,13.4302.5809,1.078,1.9323,2.4646,2.9443,2.477,13.3057.1623,26.615.1701,39.9196-.0294,1.0348-.0155,2.441-1.7042,2.9482-2.9186.4964-1.1883.2247-2.7894.0143-4.1672-4.1072-26.9016-19.3217-44.8048-44.7126-53.8374-24.4075-8.6829-49.3401-8.5536-74.2882-2.4312-15.9156,3.9058-29.4147,12.2052-40.1572,24.5476-13.9917,16.0754-14.746,35.3702-11.8114,55.0534,1.4025,9.4067,6.9531,16.8067,13.6284,23.8157,8.3258,8.7417,18.2346,14.5184,29.5292,16.542,18.648,3.3409,37.6338,4.7508,56.4065,7.4642,6.9795,1.0088,13.8909,3.006,20.5939,5.2637,6.5603,2.2096,9.893,8.1956,10.6877,14.3296,1.1106,8.5722-1.6094,16.5601-8.9831,22.8422M516.4085,253.6119c-14.1977-3.6964-24.3567-11.9876-29.3032-26.0411-.935-2.6562-2.8615-2.532-4.91-2.5338-13.4365-.0116-26.8731-.0224-40.3096-.0019-4.1188.0063-5.0267.7062-3.9404,4.7371,1.9503,7.2372,3.6473,14.7446,6.9799,21.3695,9.8282,19.5372,25.8703,32.2262,46.4635,39.2072,17.641,5.9802,35.7247,7.8879,54.3198,6.2375,14.9339-1.3254,29.2821-4.4267,42.4871-11.6672,13.8049-7.5693,24.7073-17.9928,30.7529-32.8771,4.4499-10.956,5.9142-22.2771,4.7489-34.0807-.8174-8.2793-2.9213-16.0607-7.0132-23.2505-6.9815-12.2676-17.9182-19.6141-30.8795-24.3622-17.2841-6.3315-35.589-6.0701-53.5081-8.2632-9.7558-1.194-19.5656-1.9998-28.6661-6.1509-5.4368-2.4799-9.7007-6.0583-11.3176-12.1561-2.75-10.3711,3.702-21.7595,14.8266-26.2491,13.6503-5.5088,27.5963-6.2672,41.5954-1.9756,10.8999,3.3415,19.5691,9.5927,22.3011,21.5177.6835,2.9833,2.1975,3.518,4.8071,3.4984,10.3647-.0777,20.7305-.0274,31.0958-.0265q10.959.001,8.9397-10.8834c-4.0123-21.6532-16.2482-37.1079-35.7642-46.842-12.3956-6.1826-25.8087-8.974-39.5115-9.7231-17.1895-.9398-34.1707.5117-50.5271,6.6212-12.714,4.749-23.7266,11.8694-32.324,22.4344-11.9905,14.7347-15.0641,31.7759-12.327,50.1225,2.8484,19.0927,14.0466,31.7626,31.1684,39.7468,16.545,7.7153,34.3912,9.0186,52.1684,10.7642,9.253.9085,18.5525,1.6629,27.7022,3.2362,18.0131,3.0974,22.9874,14.1378,19.3543,29.1091-2.6003,10.7149-11.2758,15.709-21.2798,18.2423-12.4289,3.1474-24.9913,3.2252-38.1298.24M1175.808,201.6c.5173-12.4922.549-25.0294,1.6975-37.4633,1.0175-11.0167,5.248-21.2361,13.003-29.2546,8.9564-9.2607,20.443-13.7873,33.2918-14.2352,9.7146-.3387,19.4501-.0794,29.1763-.0794,2.152,0,4.2101-.0253,4.2054-3.0588-.0212-13.8211.0553-27.6432-.1393-41.4615-.0145-1.028-1.9121-2.9323-2.8935-2.906-11.3423.3045-22.8206-.0451-33.9793,1.6477-16.3584,2.4817-28.3489,12.2658-37.2823,26.0378-.7753,1.1952-3.1846,1.8533-4.7852,1.7727-.8165-.0412-2.115-2.2506-2.1751-3.5278-.2519-5.3635-.2722-10.7509-.0713-16.1181.131-3.5012-1.1583-4.7114-4.6595-4.6691-12.2839.1484-24.5708.0499-36.8566.0542q-5.3783.0019-5.3805,5.4559c-.0003,65.9081.0008,131.8162-.0017,197.7242,0,1.7914.0585,3.5895-.0702,5.3729-.3547,4.9136-.3883,4.9355,4.6927,4.9416,12.2858.0147,24.5716.0174,36.8573-.0016,5.2787-.0082,5.3598-.0844,5.3622-5.3827.0132-28.0269.0073-56.0539.0082-84.8488M1557.6466,194.4006c.6778,1.3436,1.1936,2.8028,2.058,4.0131,9.9376,13.9134,19.9244,27.7917,29.9056,41.6739,11.5442,16.0558,23.1308,32.0814,34.6101,48.1835,1.8842,2.6431,4.038,3.6757,7.3412,3.6425,16.5096-.166,33.0216-.0676,49.5328-.094,1.3151-.0021,2.6299-.2457,4.3494-.4175-.7264-1.4664-1.0466-2.4479-1.6279-3.2375-13.8405-18.8026-27.7052-37.5875-41.5736-56.3694-11.7467-15.9084-23.4846-31.8235-35.2789-47.6965-1.6181-2.1778-1.6326-3.8968.1384-6.076,4.6644-5.7398,9.129-11.6429,13.6359-17.5096,19.5036-25.3884,39.0002-50.782,58.4738-76.1934,1.2604-1.6447,2.3051-3.4546,3.7033-5.5706-1.473-.1993-2.2149-.3866-2.9571-.3873-17.2791-.0149-34.5598-.1101-51.8353.1336-1.9215.0271-4.3849,1.5592-5.6314,3.15-9.1774,11.7109-18.1254,23.602-27.1144,35.4601-11.6854,15.4155-23.3928,30.815-34.9367,46.3359-1.2494,1.6798-1.983,4.091-2.0938,6.2081-.4204,8.0294-.486,16.0774-.6995,24.7511Z"/>
  <path class="cls-3" d="M654.2122,365.6124c.0413-2.429.1185-4.858.1186-7.287.0061-90.4297.0052-180.8593.006-271.289,0-1.6627.0788-3.3285.003-4.9875-.1169-2.5552.9269-3.727,3.5873-3.7157,13.174.0562,26.3486.0653,39.5224-.011,2.8831-.0167,3.7804,1.2762,3.7501,3.9666-.0718,6.3939.0186,12.7896.1289,19.6841.2037.6722.3656.7788.5711.8194,4.7818,1.1737,7.027-2.0011,9.6927-5.1521,10.5375-12.4559,24.0323-20.2017,40.0338-22.9948,27.114-4.7329,52.3613-.2412,74.6718,16.7331,13.8037,10.5021,22.9614,24.4464,29.2528,40.4073,8.3933,21.2931,9.634,43.6083,8.2298,66.0265-1.2105,19.3252-6.3569,37.7566-17.447,54.026-9.455,13.8705-21.477,24.6477-37.2257,31.2213-13.6382,5.6927-27.773,8.4297-42.4196,8.7342-11.1308.2315-22.271-.0196-33.4058.0786-3.2484.0287-4.1139-.6949-3.9563-4.3923.5013-11.7548.4028-23.5452.1802-35.3152-.0734-3.8809.9985-5.0669,4.9173-4.9572,9.7201.272,19.455.2167,29.1802.0566,14.3456-.2362,27.3974-4.7921,37.5491-14.8298,4.5737-4.5223,7.2222-11.2932,9.841-17.4293,5.6951-13.3436,6.7177-27.6531,5.1158-41.7537-1.6615-14.6265-5.9608-28.7255-15.6658-40.5119-4.7656-5.7878-11.5145-8.348-17.9902-11.2664-14.2237-6.4101-28.9813-6.0215-43.3233-1.1905-15.1954,5.1184-26.2564,15.2568-32.1161,30.6894-4.3886,11.5584-5.7147,23.582-5.7503,35.7051-.1754,59.646-.0799,119.2928-.08,179.2993-15.376.3599-30.7521.3599-46.5125.1779-.3843-.182-.4594-.5416-.4594-.5416Z"/>
  <path class="cls-3" d="M1738.344,366.336c1.0159-4.0313,2.0681-8.2093,3.8192-12.0704,12.4434-27.4355,25.0628-54.791,37.4775-82.2393.6579-1.455.5173-3.7727-.1729-5.2616-11.6541-25.1365-23.4733-50.1965-35.2176-75.2914-10.7694-23.0117-21.5121-46.0359-32.2288-69.0721-6.246-13.4264-12.4234-26.8847-18.6122-40.3378-.4091-.8895-.6499-1.8566-1.155-3.3303,1.7209-.1546,3.0518-.3759,4.383-.3781,14.5873-.0245,29.1756.0768,43.7612-.0856,3.2153-.0358,4.8658,1.198,6.1043,3.9865,7.0463,15.8645,14.2104,31.6765,21.3144,47.5154,6.2678,13.9738,12.6977,27.879,18.7082,41.963,5.703,13.3632,11.0316,26.8889,16.3301,40.4193.8951,2.2858,1.5846,3.8188,4.4044,3.6475,2.9014-.1763,2.2508-2.2359,2.8373-3.9929,2.8232-8.4599,5.4439-17.0381,9.0182-25.1877,13.6356-31.0896,27.6039-62.0332,41.4669-93.0229,1.7724-3.9623,3.7669-7.8283,5.4486-11.8272,1.1091-2.6376,2.8654-3.4882,5.6484-3.4722,15.8666.0914,31.7338.0405,47.9608.0379.36.576.36,1.152.1556,2.1878-.6874,1.3594-1.2195,2.2363-1.6466,3.1618-8.9273,19.3487-17.8401,38.7039-26.7609,58.0555-6.1969,13.4428-12.4164,26.8753-18.5998,40.3242-11.4598,24.9249-22.8806,49.8677-34.3566,74.7852-6.6731,14.4888-13.4492,28.9302-20.1308,43.4152-10.1543,22.0133-20.2667,44.046-30.3969,66.0704h-49.56Z"/>
  <path class="cls-2" d="M1788.264,366.336c9.7703-22.0244,19.8827-44.0571,30.0369-66.0704,6.6816-14.485,13.4576-28.9263,20.1308-43.4152,11.4759-24.9174,22.8968-49.8603,34.3566-74.7852,6.1834-13.449,12.4029-26.8814,18.5998-40.3242,8.9209-19.3515,17.8337-38.7068,26.7609-58.0555.4271-.9255.9593-1.8024,1.6466-2.8738.2044,94.9835.2044,190.1389.2044,285.5242h-131.736Z"/>
  <path class="cls-3" d="M1534.1041,0c.3599,94.2949.3599,188.5898.3595,282.8847,0,1.5353-.1272,3.0821.0165,4.6036.3223,3.4113-1.2553,4.4248-4.5072,4.3943-12.9213-.1214-25.8448-.1178-38.7663-.0044-3.4099.0299-4.814-.9739-3.7214-4.4914.2922-.9411.1239-2.0333.1239-3.056.003-93.5272.0018-187.0544-.0016-280.5817,0-.7674-.0344-1.5348-.0463-2.8434.0064-.5412.0548-.9056.0548-.9056h46.4881Z"/>
  <path class="cls-3" d="M46.9719.7236c-.0413,2.4289-.1185,4.8579-.1186,7.2868-.0062,91.4499-.0052,182.8997-.0053,274.3496,0,1.279.0045,2.5581-.0027,3.8371-.0313,5.6014-.0325,5.6226-5.494,5.6366-13.3015.034-26.603.0464-40.4455.0601-.5411-.0074-.9057-.0538-.9057-.0538V0c15.4387,0,30.7834,0,46.5125.182.3843.182.4594.5416.4594.5416Z"/>
  <path class="cls-1" d="M1487.424,0c.192,0,.1436.3643.1058.544-.1865.0241-.3314-.135-.5772-.4207-.1046-.1233.2794-.1233.4714-.1233Z"/>
  <path class="cls-1" d="M47.082.6057c-.1101.1179-.1852-.2417-.2096-.4237s.3596-.182.5516-.182c.0546.166-.0867.3286-.342.6057Z"/>
  <path class="cls-1" d="M0,292.032c0-.192.3647-.1456.5442-.1069.0239.1875-.1351.3325-.4208.5783-.1233.1046-.1233-.2794-.1233-.4714Z"/>
  <path class="cls-1" d="M0,365.952c.176-.2187.3484-.0498.6427.2533-.1307.1307-.3867.1307-.6427-.2533Z"/>
  <path class="cls-1" d="M654.1021,365.7303c.1101-.1179.1852.2416.2095.4237.0244.182-.3596.182-.5516.182-.0546-.166.0868-.3286.3421-.6057Z"/>
  <path class="cls-3" d="M357.9404,273.5278c-2.9229-.4476-5.3282.3756-7.8112,2.1353-15.1299,10.7223-31.7932,17.9677-50.2319,20.4498-22.2574,2.9962-43.6839.3491-62.8605-12.2077-16.4686-10.7836-25.342-26.4004-27.4591-46.0256-1.9022-17.6329,1.525-33.8513,12.3692-48.0309,9.9878-13.0597,23.7888-20.4157,39.5735-23.7516,8.6774-1.8339,17.6353-2.7902,26.5069-3.1486,12.7779-.5162,25.5934-.0362,38.3904-.1853,3.5293-.0411,4.7134,1.2209,4.6401,4.6911-.1756,8.3155-.1512,16.6387-.0147,24.9557.0523,3.1818-1.1834,4.2635-4.2969,4.2325-11.0058-.1098-22.0221-.3005-33.0177.0562-8.5612.2778-17.0549,1.3875-24.4361,6.5162-6.6089,4.5921-10.0422,10.9538-11.2572,18.783-1.0708,6.9007-.3385,13.4551,3.1348,19.5713,5.6982,10.034,15.1393,14.1895,25.8964,15.6209,23.9608,3.1884,44.0413-5.4096,61.6481-21.0546.8555-.7602,1.8202-1.3972,2.6785-2.1544,4.3892-3.8717,7.552-7.9028,7.4259-14.5765-.4277-22.6459-.0932-45.3051-.2063-67.9584-.0369-7.3905-1.8968-14.3676-5.9814-20.6735-4.7781-7.3766-11.7803-11.7182-20.0087-13.7801-14.0231-3.5139-28.0634-3.3499-41.6881,2.0238-8.5675,3.3791-14.9957,9.175-18.0333,18.1103-.8359,2.4589-2.1348,3.4521-4.7168,3.4389-14.3343-.0727-28.6693-.0784-43.0035-.0018-3.2677.0175-4.3191-1.1902-3.6983-4.4322,4.2608-22.2502,16.5578-38.5528,36.2127-49.5678,13.7153-7.6862,28.4437-11.6331,44.0527-12.9635,19.8205-1.6892,39.3178-.4567,58.1707,6.1635,19.4012,6.8127,34.0646,19.0971,40.9842,38.947,2.4056,6.901,4.3094,14.3779,4.4043,21.6186.6305,48.0952.7132,96.1977.9587,144.2978.0368,7.2076-.0002,7.2105-7.3831,7.2121-11.007.0024-22.014.0028-33.0209-.0002q-7.2008-.002-7.2081-7.3954c-.0054-3.1991-.037-6.3981-.1421-10.0966-.2038-.6722-.3657-.7788-.5712-.8193Z"/>
  <path class="cls-3" d="M1046.6643,162.1004c-1.8856-26.4103-18.825-45.0843-46.2997-47.0197-13.1388-.9255-25.549.9346-36.7401,7.8087-13.139,8.0706-21.094,20.2894-24.8503,35.0746-5.0768,19.9831-4.9089,39.9556,1.772,59.6086,7.6524,22.5113,27.5366,36.3512,51.2587,36.7263,16.0202.2533,29.9479-4.5551,41.5617-15.4384,3.1272-2.9305,5.2463-7.0225,7.4823-10.7868,1.3621-2.2933,2.9772-3.1021,5.5576-3.0842,12.9256.0899,25.8523.0208,38.7786.0499,4.535.0102,4.9901.525,3.5535,4.9476-3.6593,11.2647-8.952,21.7204-16.2999,31.0439-8.8198,11.1911-19.4096,20.442-32.3986,26.3402-11.2843,5.1242-23.2489,8.0346-35.7283,9.2469-17.0992,1.6611-33.6227-.6322-49.7969-5.7622-10.9346-3.4682-20.8777-9.2605-29.3843-16.8544-16.7387-14.9426-28.9785-32.922-33.8096-55.2245-1.1522-5.3195-1.8063-10.8047-2.0786-16.2443-.474-9.4687-.6835-18.9625-.6228-28.4434.0956-14.9554,3.1894-29.3915,9.7508-42.8065,3.6784-7.5204,7.9299-15.0072,13.2168-21.4472,14.8487-18.0873,34.0487-29.6717,57.0155-34.3595,22.7273-4.639,45.2226-3.6873,66.9559,5.1711,18.9633,7.7293,33.6995,20.3959,43.8415,38.3061,9.3488,16.5092,13.4033,34.3328,13.4609,53.1784.0192,6.2711.0145,12.5424-.0023,18.8135-.0151,5.6188-.031,5.6541-5.4776,5.6555-39.5468.0101-79.0935.0095-118.6403.0014-5.6407-.0011-5.6528-.0284-5.6644-5.8552-.0138-6.9111-.0064-13.8221-.0036-20.7332q.003-7.1897,7.0193-7.1969c25.0846-.0205,50.1691-.0398,75.753-.145.6722-.2038.7788-.3657.8193-.5711Z"/>
  <path class="cls-3" d="M1400.9432,246.7052c7.1647-6.1104,9.8846-14.0983,8.7741-22.6705-.7947-6.134-4.1273-12.12-10.6877-14.3296-6.7029-2.2577-13.6144-4.2548-20.5939-5.2637-18.7727-2.7134-37.7585-4.1233-56.4065-7.4642-11.2946-2.0235-21.2034-7.8002-29.5292-16.542-6.6754-7.009-12.2259-14.409-13.6284-23.8157-2.9347-19.6833-2.1803-38.978,11.8114-55.0534,10.7424-12.3423,24.2416-20.6418,40.1572-24.5476,24.9481-6.1224,49.8806-6.2517,74.2882,2.4312,25.3909,9.0327,40.6054,26.9358,44.7126,53.8374.2104,1.3778.4821,2.9789-.0143,4.1672-.5072,1.2144-1.9133,2.9031-2.9482,2.9186-13.3046.1994-26.6139.1917-39.9196.0294-1.012-.0124-2.3634-1.3989-2.9443-2.477-2.4006-4.4546-4.0391-9.4264-7.0072-13.4302-1.8794-2.5354-5.5686-3.7718-8.5202-5.4616-8.3265-4.7669-17.3925-6.4974-26.8742-6.1036-10.1006.4196-19.7872,2.6341-28.0119,8.7886-6.08,4.5494-9.2092,11.0339-8.6462,18.6783.5579,7.5787,5.1127,12.5135,11.9356,15.555,9.1353,4.0722,18.918,4.94,28.6733,6.133,17.9185,2.1913,36.2178,1.9432,53.5073,8.2561,13.1082,4.7863,24.0767,12.2882,31.1108,24.6647,4.2957,7.5582,6.0846,15.7952,6.9032,24.4607,1.0457,11.0696-.6445,21.5554-4.5256,31.8332-4.5855,12.1435-13.0063,21.2355-23.137,28.9026-12.2705,9.2865-26.6729,13.0856-41.5125,15.4245-18.6228,2.9351-37.0409,1.5907-55.4485-2.4996-13.3137-2.9583-25.258-8.5154-35.3274-17.3699-13.6839-12.0329-23.6829-26.6061-26.6132-45.1641-.5873-3.7192.7854-5.5523,4.4377-5.5577,13.4359-.0199,26.8725.0695,40.3071-.0636,2.9978-.0297,4.6237.9313,5.7044,3.7833,6.4057,16.9042,19.7936,24.1091,36.8057,26.2657,12.2348,1.551,24.2017.7605,35.7031-3.9341,2.5641-1.0466,4.8445-2.7882,7.4646-4.3816Z"/>
  <path class="cls-3" d="M516.7019,253.7321c12.8451,2.865,25.4075,2.7872,37.8364-.3602,10.004-2.5333,18.6795-7.5274,21.2798-18.2423,3.6331-14.9713-1.3411-26.0117-19.3543-29.1091-9.1497-1.5733-18.4492-2.3277-27.7022-3.2362-17.7772-1.7455-35.6235-3.0489-52.1684-10.7642-17.1218-7.9842-28.32-20.6542-31.1684-39.7468-2.7371-18.3466.3365-35.3878,12.327-50.1225,8.5974-10.565,19.61-17.6854,32.324-22.4344,16.3565-6.1096,33.3376-7.561,50.5271-6.6212,13.7028.7492,27.1159,3.5405,39.5115,9.7231,19.516,9.7341,31.7519,25.1888,35.7642,46.842q2.0168,10.8839-8.9397,10.8834c-10.3653-.0009-20.7311-.0512-31.0958.0265-2.6096.0196-4.1236-.5151-4.8071-3.4984-2.732-11.9251-11.4011-18.1762-22.3011-21.5177-13.9991-4.2915-27.9451-3.5331-41.5954,1.9756-11.1247,4.4896-17.5766,15.8779-14.8266,26.2491,1.6169,6.0978,5.8808,9.6762,11.3176,12.1561,9.1005,4.1511,18.9103,4.9569,28.6661,6.1509,17.9191,2.1931,36.2241,1.9316,53.5081,8.2632,12.9614,4.7481,23.898,12.0946,30.8795,24.3622,4.0918,7.1898,6.1958,14.9711,7.0132,23.2505,1.1653,11.8036-.299,23.1247-4.7489,34.0807-6.0455,14.8843-16.948,25.3078-30.7529,32.8771-13.2051,7.2405-27.5533,10.3417-42.4871,11.6672-18.5952,1.6504-36.6788-.2573-54.3198-6.2375-20.5933-6.981-36.6353-19.67-46.4635-39.2072-3.3326-6.6249-5.0296-14.1323-6.9799-21.3695-1.0863-4.0309-.1784-4.7308,3.9404-4.7371,13.4365-.0205,26.8731-.0098,40.3096.0019,2.0485.0018,3.975-.1224,4.91,2.5338,4.9465,14.0534,15.1055,22.3447,29.5966,26.1613Z"/>
  <path class="cls-3" d="M1175.808,201.984c-.0008,28.4109.0051,56.4379-.0082,84.4648-.0024,5.2983-.0835,5.3745-5.3622,5.3827-12.2858.019-24.5716.0164-36.8573.0016-5.081-.0061-5.0473-.028-4.6927-4.9416.1287-1.7834.0701-3.5815.0702-5.3729.0025-65.9081.0014-131.8162.0017-197.7242q0-5.4442,5.3805-5.4559c12.2858-.0043,24.5727.0942,36.8566-.0542,3.5012-.0423,4.7904,1.1679,4.6595,4.6691-.2009,5.3672-.1807,10.7546.0713,16.1181.0601,1.2773,1.3586,3.4867,2.1751,3.5278,1.6006.0807,4.0099-.5775,4.7852-1.7727,8.9334-13.772,20.9239-23.5561,37.2823-26.0378,11.1587-1.6929,22.6371-1.3433,33.9793-1.6477.9814-.0263,2.879,1.878,2.8935,2.906.1946,13.8183.1181,27.6404.1393,41.4615.0047,3.0336-2.0534,3.0588-4.2054,3.0588-9.7262,0-19.4618-.2593-29.1763.0794-12.8487.448-24.3353,4.9745-33.2918,14.2352-7.755,8.0185-11.9856,18.2379-13.003,29.2546-1.1485,12.4339-1.1802,24.9711-1.6975,37.8473Z"/>
  <path class="cls-3" d="M1557.6542,194.0843c.2059-8.3574.2715-16.4054.6919-24.4348.1108-2.1171.8444-4.5283,2.0938-6.2081,11.5439-15.5209,23.2513-30.9204,34.9367-46.3359,8.9889-11.8581,17.937-23.7492,27.1144-35.4601,1.2465-1.5908,3.7099-3.1229,5.6314-3.15,17.2755-.2437,34.5563-.1484,51.8353-.1336.7421.0006,1.4841.188,2.9571.3873-1.3982,2.116-2.4429,3.926-3.7033,5.5706-19.4736,25.4114-38.9702,50.805-58.4738,76.1934-4.5069,5.8667-8.9715,11.7699-13.6359,17.5096-1.7709,2.1791-1.7565,3.8982-.1384,6.076,11.7943,15.8731,23.5322,31.7881,35.2789,47.6965,13.8684,18.782,27.7331,37.5668,41.5736,56.3694.5813.7895.9015,1.771,1.6279,3.2375-1.7196.1718-3.0343.4154-4.3494.4175-16.5113.0264-33.0233-.072-49.5328.094-3.3032.0332-5.457-.9994-7.3412-3.6425-11.4793-16.1021-23.0659-32.1277-34.6101-48.1835-9.9812-13.8822-19.968-27.7605-29.9056-41.6739-.8644-1.2103-1.3802-2.6695-2.0504-4.3295Z"/>
  <path class="cls-3" d="M117.4737,181.3337c4.5735,6.4269,9.0676,12.912,13.7342,19.2706,21.4321,29.2027,42.9152,58.368,64.3604,87.5611.5712.7776.9192,1.7192,1.6436,3.1056-1.5563.2362-2.6208.5366-3.6858.5385-16.8908.0294-33.7824.0946-50.6712-.0929-1.7107-.019-4.0185-1.1678-5.0148-2.5421-22.0853-30.4641-44.0482-61.0172-65.9265-91.6304-1.1592-1.6221-1.8611-3.9056-1.931-5.9107-.2361-6.7737.2159-13.5793-.194-20.3364-.2998-4.9416,3.0085-7.7241,5.4475-10.9635,12.6569-16.8105,25.4969-33.4832,38.2615-50.2127,7.5031-9.8337,14.9445-19.7149,22.533-29.482.8289-1.067,2.4439-2.1524,3.7022-2.1618,17.6567-.1322,35.3149-.0819,52.9726-.0544.4771.0007.9539.2424,2.2744.6003-25.9259,33.8821-51.5807,67.4098-77.4636,101.2595-.1663.5651-.1045.8081-.0427,1.0512Z"/>
  <path class="cls-1" d="M701.8028,102.6904c-.1088.0613-.2707-.0453-.4441-.3553.0826-.0107.2168.1196.4441.3553Z"/>
  <path class="cls-1" d="M1046.5624,162.1971c.0614.1088-.0452.2707-.3551.4442-.0108-.0827.1193-.217.3551-.4442Z"/>
  <path class="cls-1" d="M117.474,181.0989c-.0621-.0083-.1239-.2513-.093-.5994.0929.0515.093.2081.093.5994Z"/>
  <path class="cls-1" d="M358.0371,273.6296c.1088-.0613.2707.0453.4442.3553-.0826.0107-.2169-.1196-.4442-.3553Z"/>
</svg>