<?xml version="1.0" encoding="UTF-8"?>
<svg id="Layer_1" data-name="Layer 1" xmlns="http://www.w3.org/2000/svg" viewBox="0 0 1920.0022 375.9936">
  <defs>
    <style>
      .cls-1 {
        fill: #fff;
      }

      .cls-2 {
        fill: #741813;
      }

      .cls-3 {
        fill: none;
      }

      .cls-4 {
        fill: #be2f2c;
      }

      .cls-5 {
        fill: #c02026;
      }
    </style>
  </defs>
  <path class="cls-3" d="M1920,2.2336c0,21.3467,0,42.6934-.2969,64.3401-1.6812.2999-3.0914.4694-4.4448.2642-2.7116-.4112-3.9091.7367-4.643,3.304-1.3809,4.8298-3.0692,9.5742-4.7189,14.3231-.5841,1.6811-1.4275,3.272-2.49,5.6638-2.9289-8.3735-5.5312-15.8127-8.05-23.0134h-8.4719v31.543h5.7189v-18.7948c.2556-.088.5112-.1759.767-.2639.5461.9086,1.2542,1.7583,1.6097,2.7361,1.4306,3.9345,2.76,7.9061,4.1125,11.8688q1.6981,4.9746,7.0631,4.4635c2.5992-5.8284,3.8359-12.2597,7.0544-17.8046.3648.1118.7297.2236,1.0945.3354v17.6746h5.6953c0,67.8534,0,135.7067-.2977,203.8601-49.4884.2999-98.6792.3007-147.87.2955-1.1684-.0001-2.337-.0656-3.3883-.315,3.0437-.8732,5.9603-1.5795,8.8983-2.1833,28.4958-5.8562,51.2562-21.2761,70.633-42.3377.1841-.2002.1794-.5742.2723-.9004-8.3745-4.5343-16.7122-9.0222-25.0244-13.5563-8.3614-4.5609-16.6978-9.1677-24.9597-13.7074-19.8366,19.5774-44.7205,25.6615-69.093,14.5681-14.0122-6.3779-23.9203-17.0511-28.5111-32.6159h164.9039c-.0372-14.5534.5675-28.8046-2.4237-42.9698-5.2692-24.9527-16.5175-46.3167-35.788-63.3627-10.1448-8.9738-21.4066-15.9881-33.9008-21.0075-10.665-4.2845-21.687-7.3056-33.2962-7.5145-4.7222-.085-9.4869-.4043-14.162.0727-8.347.8517-16.7633,1.6821-24.9267,3.5168-11.0042,2.4731-21.338,6.9507-31.0372,12.8299-11.6989,7.0912-21.6606,16.0675-30.0664,26.8434-5.7877,7.4196-10.5309,15.4413-14.2667,24.0545-5.0931,11.7425-8.3975,24.0049-9.1056,36.7785-.3981,7.1804.0778,14.4388.5775,21.633.8684,12.5026,4.5733,24.3148,9.9373,35.5568,7.4533,15.6204,17.7086,29.0411,31.403,39.8725,14.4116,11.3988,30.6859,18.4184,48.5167,22.1924,3.7416.7919,7.4725,1.633,10.9148,2.5003-72.9502.0512-145.6066.054-218.2631.0517-.743,0-1.4861-.0656-2.0841-.2979,1.0503-.4529,1.9408-.8401,2.8633-.9443,13.3712-1.5115,26.08-5.464,37.8947-11.6945,7.9295-4.1817,15.5864-9.139,22.6128-14.7001,6.6517-5.2645,12.322-11.7687,18.5645-17.7898.0378-.2226-.0648-.3831-.3695-.6471-16.4958-9.0794-32.7894-18.0553-49.0081-26.9899-41.3364,39.6283-90.4111,12.8164-97.5744-17.9272h165.2692c-.6355-12.4377-.567-24.6717-2.0497-36.7147-1.8978-15.4161-6.9367-30.0082-14.9981-43.4414-6.7428-11.2359-15.013-21.1741-25.1631-29.4577-8.5047-6.9407-17.8647-12.5886-27.9531-16.9137-12.7641-5.4722-26.1241-8.8145-40.0252-8.912-7.9853-.056-16.008.9034-23.963,1.8378-11.5544,1.3572-22.5367,4.9279-32.9595,10.0204-15.9628,7.799-29.4914,18.6074-40.0922,33.0085-15.6741,21.2928-23.3284,44.9699-22.5848,71.517.3737,13.3377,2.8792,26.062,7.7398,38.4114,8.2061,20.8491,21.2789,37.8981,39.6797,50.7536,12.6458,8.835,26.5441,14.794,41.7066,17.7538,5.0995.9954,10.1939,2.0174,14.997,3.076-53.5377.0512-106.7817.0541-160.0259.0517-.7427,0-1.4855-.0659-2.2297-.394-.0014-45.0203-.0014-89.7476-.0014-134.7421h39.4467v-56.9248h-39.4487c0-8.4444-.1989-16.631.0875-24.8007.1342-3.8286.5603-7.8847,1.9742-11.3853,3.877-9.5997,11.9637-14.1455,21.6794-13.5386,5.4875.3428,11.0636,1.1659,16.0553,4.0424,1.775,1.023,3.8242,1.5703,5.9597,2.4188,8.5297-18.6208,16.9603-37.0251,25.7489-56.2114-6.498-2.0991-12.5531-4.3883-18.7875-5.971-5.7367-1.4563-11.6662-2.1527-17.2156-3.2327,185.0564-.0514,369.8172-.0538,554.5781-.0562M1873.9231,73.7494c.7427-.5849,1.4452-1.6,2.2356-1.6742,2.3822-.2233,4.7989-.0806,7.1859-.0806v-4.9128h-25.8009v5.0332h10.0678v26.5922h6.3084c0-8.2227,0-16.2836.0031-24.9579Z"/>
  <path class="cls-3" d="M714.24.3136c198.6321,0,397.2643,0,596.1884.2832,1.1014.7344,1.907,1.5706,2.7205,1.5782,9.7452.0908,19.4914.0433,29.2372.0826.9667.0039,1.9322.3417,2.6239.5613-6.7395,1.3085-13.2884,2.2582-19.6531,3.9156-15.876,4.1343-29.1158,12.6622-39.1762,25.6045-11.8804,15.2836-17.3147,32.948-17.677,52.2052-.1443,7.6729-.0237,15.3507-.0237,23.0263v3.6062h-26.6305v56.9192h26.6255c0,45.1233,0,89.9778-.2937,134.8814-9.4812.0163-18.6687-.0164-27.8592-.2887-.6132-1.6838-1.2361-3.1228-1.8318-4.573-6.8549-16.6902-13.7095-33.3805-20.5565-50.0739-5.3741-13.1023-10.718-26.2172-16.1123-39.3112-4.6365-11.2542-9.3155-22.4909-13.9934-33.7279-5.5252-13.2724-11.1011-26.5238-16.5973-39.8081-6.2162-15.0244-12.3417-30.0863-18.5559-45.1115-5.9361-14.3525-11.9701-28.6645-17.8977-43.0204-6.1547-14.9062-12.2335-29.8437-18.3052-44.6692h-62.3438c.0916.6831.0541,1.2314.2423,1.6861,4.8174,11.6337,9.6066,23.2798,14.5413,34.8638.9337,2.1917,1.0725,3.9402-.0324,6.184-2.7362,5.5566-5.127,11.2844-7.6173,16.9607-6.0329,13.7513-12.0234,27.5213-18.0703,41.2665-4.1883,9.5204-8.4833,18.9938-12.6559,28.521-5.7285,13.0797-11.3441,26.2088-17.087,39.2822-5.1126,11.6387-10.3849,23.2072-15.4919,34.8483-6.5381,14.9036-12.927,29.8726-19.4812,44.769-6.0081,13.6553-12.1723,27.242-18.2183,40.8808-1.5035,3.3916-2.8163,6.8678-4.2355,10.3511,1.5985.3712,2.7847.6466,3.6773.9708-13.9066.0512-27.5195.0681-41.1325.0524-17.1198-.0198-34.2398-.0662-51.2091-.3003,1.2739-.4534,2.3862-.8524,3.5224-.9394,9.6967-.7425,18.9973-3.1494,28.1141-6.4392,15.4933-5.5908,29.2464-14.1355,40.7534-25.7765,6.388-6.4624,11.5148-14.1996,16.9847-21.5304,3.0249-4.054,2.7382-4.1308-1.7095-6.7115-8.993-5.2179-17.9069-10.5723-26.8498-15.8761-6.4856-3.8465-12.9659-7.7021-19.5123-11.5916-.5067.6583-.8536,1.0468-1.1318,1.4795-5.0834,7.9075-10.2478,15.7923-17.9791,21.4257-12.7387,9.282-27.1326,11.9986-42.3637,9.0735-12.6592-2.4312-23.6259-8.343-32.23-18.3515-11.9775-13.9325-16.1549-30.142-13.4857-47.9213,2.1402-14.2549,8.808-26.4192,20.3008-35.603,5.6407-4.5075,11.8691-7.7966,18.7845-9.9432,9.169-2.8462,18.4708-3.3124,27.8567-1.8339,11.9624,1.8844,21.6957,7.9356,29.3971,17.1004,3.8991,4.64,7.1807,9.799,10.9279,14.981,16.8201-9.9604,33.6862-19.948,50.6433-29.9895-.2459-.551-.3902-1.065-.6746-1.4838-6.7466-9.9322-13.928-19.4511-22.7696-27.7262-9.1833-8.5949-19.3271-15.4976-30.831-20.5483-11.3795-4.9961-23.3184-7.9858-35.6127-8.5119-10.3368-.4424-20.7647.356-31.1077,1.1709-12.6907,1-24.6216,5.1348-35.9844,10.671-13.6103,6.6312-25.3301,15.749-35.203,27.3676-7.5939,8.9364-13.7216,18.7523-18.1346,29.4648-6.5401,15.8758-10.1539,32.4589-8.5466,49.799.6296,6.7919,1.1038,13.6766,2.6286,20.2932,5.7414,24.9137,18.307,45.9301,38.1891,62.0493,16.8227,13.6387,36.2248,21.8134,57.8816,24.3382,2.7437.3199,5.4265,1.1622,7.8439,1.8113-42.4471.0512-84.6005.0553-126.754.0516-2.2327-.0002-4.4654-.0654-6.577-.3349.2512-1.5872.4952-2.9398.4954-4.2924.0178-99.3627.0162-198.7254.0162-298.0882Z"/>
  <path class="cls-1" d="M867.2071,302.9287c17.1198.035,34.2398.0814,51.3596.1012,13.613.0157,27.2259-.0012,41.4286-.0062,20.6644-.0332,40.7389-.0638,61.1105-.0461,49.0583.0509,97.8198.0539,146.5812.0515.7426,0,1.4852-.0658,2.5248-.0546,23.5691.0154,46.8412-.0155,70.1132-.0464,9.1876.0327,18.3751.0654,28.1524.0955,20.8758-.0336,41.1617-.0646,61.4477-.0955.7427.0352,1.4855.101,2.2281.1011,53.2442.0024,106.4883-.0005,160.3222-.0054,8.717-.0334,16.8445-.0643,24.9719-.0951.743.035,1.4861.1005,2.2291.1005,72.6566.0022,145.313-.0005,218.5592-.0055,10.4236-.0334,20.2575-.0643,30.0914-.0952,1.1684.035,2.337.1005,3.5055.1006,49.1908.0051,98.3816.0044,147.87.0044.2977,24.315.2977,48.63.2977,72.96-421.3483,0-842.6965,0-1264.3424-.2999-.2976-24.3954-.2976-48.4909-.2976-72.5576,1.0732-.0872,1.813-.1473,2.8491-.1612,18.6636.0154,37.0309-.0154,55.3982-.0462,2.2327.0349,4.4654.1001,6.6981.1003,42.1534.0037,84.3069-.0003,127.0501-.0053,7.0103-.0334,13.431-.0642,19.8516-.0951Z"/>
  <path class="cls-3" d="M657.9128,302.9287c-.7398.0601-1.4796.1202-2.5528.2074v72.5576c-162.7867.2999-325.5734.2999-488.6794.0692,3.0317-1.9699,6.3247-3.8335,9.7433-5.4279,21.319-9.9438,42.6644-19.831,64.0046-29.7291,8.3614-3.8782,16.7299-7.7412,25.0991-11.6026,19.3354-8.9208,38.6518-17.8833,58.0343-26.7007,2.7399-1.2464,3.5479-2.8633,3.5455-5.8202-.0814-98.7229-.0674-197.4458-.0674-296.1688,42.04,0,84.0801,0,126.4201.2999.2999,100.722.2999,201.1441.2999,301.6148h66.7147v-171.6755c1.713,1.2441,2.9103,2.0895,4.0823,2.9685,18.9121,14.1862,37.836,28.357,56.7087,42.5954,1.9944,1.5047,3.5515,1.4428,5.5094-.0302,17.8834-13.4551,35.8083-26.8552,53.7365-40.2507,2.1202-1.5841,4.3326-3.0447,7.2423-5.0803v171.3319c3.6964.306,6.9277.5736,10.159.8411Z"/>
  <path class="cls-5" d="M658.209,302.975c-3.5275-.3138-6.7589-.5813-10.4552-.8874v-171.3319c-2.9097,2.0356-5.1221,3.4962-7.2423,5.0803-17.9282,13.3955-35.853,26.7956-53.7365,40.2507-1.9579,1.473-3.515,1.5349-5.5094.0302-18.8727-14.2385-37.7966-28.4092-56.7087-42.5954-1.172-.8791-2.3693-1.7244-4.0823-2.9685v171.6755h-66.7147V.6136c.48-.2999.96-.2999,1.5735-.0827.3048.4849.4183.8286.6557,1.0094,12.6186,9.6073,25.2243,19.2317,37.8818,28.7877,14.3255,10.8153,28.7231,21.5351,43.0436,32.357,15.1647,11.4599,30.2723,22.9954,45.4164,34.4826,1.1373.8627,2.0349,1.1326,3.531-.0306,11.6912-9.0897,23.4972-18.0326,35.3124-26.9617,12.6453-9.5564,25.348-19.0368,38.0099-28.5713,15.5151-11.6831,31.0389-23.3551,46.4934-35.118,2.3935-1.8218,4.437-4.1034,6.6423-6.1723.48,0,.96,0,1.68,0,.24,99.3627.2416,198.7254.2237,298.0882-.0002,1.3526-.2441,2.7052-.4954,4.2924-18.4884.2654-36.8557.2962-55.5193.2808Z"/>
  <path class="cls-2" d="M326.7658.3136c.2742,98.7229.2603,197.4459.3416,296.1688.0024,2.9569-.8056,4.5738-3.5455,5.8202-19.3825,8.8173-38.6989,17.7799-58.0343,26.7007-8.3692,3.8614-16.7377,7.7243-25.0991,11.6026-21.3403,9.8982-42.6856,19.7854-64.0046,29.7291-3.4185,1.5945-6.7116,3.458-10.0432,5.4279-.8695.2307-1.7584.2307-2.914-.0692-.2815-24.8164-.2964-49.3328-.1003-73.953,2.3213-1.0842,4.4322-2.0635,6.542-3.0454,9.5127-4.4271,19.0151-8.8765,28.5396-13.2779,19.3321-8.9336,38.6612-17.8739,58.0356-26.715,2.1912-.9999,2.7743-2.2909,2.7709-4.6175-.0723-48.1938-.0545-96.3878-.0545-144.5818v-3.911c-32.4371,14.9928-64.2463,29.6954-96.0364,44.1038.0082-25.0008-.0027-49.7076.2204-74.4592,13.7759-6.354,27.3131-12.6732,40.8614-18.9685,8.6467-4.0177,17.3044-8.012,25.967-11.9956,18.1868-8.3633,36.3847-16.7025,54.5689-25.0715,11.1623-5.1373,22.327-10.2706,33.4411-15.5104,1.7917-.8447,3.3248-2.2377,4.9775-3.3773,1.0972,0,2.1944,0,3.5658,0Z"/>
  <path class="cls-4" d="M163.1554,301.8445c.0148,24.5164.0297,49.0329.0446,73.8492-.8889.2999-1.7778.2999-2.8343.0741-1.3127-.932-2.3991-1.7654-3.6119-2.3247-13.0628-6.0247-26.1585-11.9784-39.2194-18.0072-14.1144-6.5151-28.2053-13.0809-42.2993-19.6401-19.1462-8.9105-38.2747-17.859-57.4342-26.7405-5.8942-2.7323-11.8651-5.299-17.8009-7.9416C0,200.847,0,100.5803.0014.3136c.8538,0,1.7062,0,2.7796.2258,1.3658.9319,2.4523,1.7639,3.6642,2.3251,16.6751,7.7205,33.3752,15.3872,50.0528,23.1025,9.3424,4.322,18.6384,8.7444,27.9839,13.0598,18.5884,8.5833,37.1983,17.12,55.7956,25.6839,7.6291,3.5131,15.2487,7.0468,22.8727,10.5711.0109,24.7067.0217,49.4135-.1996,74.359-1.3542-.3379-2.4571-.9559-3.6011-1.485-19.3641-8.9562-38.7374-17.8923-58.0996-26.8526-9.8284-4.5483-19.6276-9.1598-29.4704-13.6766-1.3215-.6064-2.8216-.8238-4.5793-1.3167v3.8479c0,47.985.0311,95.97-.0848,143.9546-.0063,2.6083.9496,3.7521,3.0391,4.7144,15.3743,7.0804,30.7202,14.2225,46.0885,21.316,6.0072,2.7727,12.0683,5.4287,18.0706,8.2117,9.629,4.4644,19.2295,8.9902,28.8421,13.49Z"/>
  <path class="cls-3" d="M712.0201.3136c-1.9055,2.0689-3.9489,4.3505-6.3424,6.1723-15.4545,11.7629-30.9783,23.4348-46.4934,35.118-12.6619,9.5346-25.3646,19.0149-38.0099,28.5713-11.8152,8.9291-23.6212,17.872-35.3124,26.9617-1.4961,1.1632-2.3937.8933-3.531.0306-15.1441-11.4872-30.2518-23.0227-45.4164-34.4826-14.3204-10.8219-28.7181-21.5417-43.0436-32.357-12.6574-9.556-25.2632-19.1804-37.8818-28.7877-.2375-.1808-.3509-.5244-.4157-1.0094,85.4532-.2172,170.8-.2172,256.4466-.2172Z"/>
  <path class="cls-3" d="M163.3841,75.2368c-7.8579-3.4794-15.4775-7.013-23.1066-10.5262-18.5974-8.5639-37.2072-17.1006-55.7956-25.6839-9.3455-4.3153-18.6414-8.7378-27.9839-13.0598C39.8204,18.2517,23.1203,10.585,6.4452,2.8645c-1.2119-.5611-2.2984-1.3932-3.3442-2.3251,106.5657-.2258,213.0324-.2258,319.7991-.2258-1.3527,1.1396-2.8859,2.5326-4.6775,3.3773-11.1142,5.2398-22.2788,10.3731-33.4411,15.5104-18.1842,8.369-36.3821,16.7082-54.5689,25.0715-8.6625,3.9835-17.3202,7.9778-25.967,11.9956-13.5483,6.2952-27.0855,12.6145-40.8614,18.9685Z"/>
  <path class="cls-3" d="M0,301.4136c5.9358,2.3426,11.9067,4.9094,17.8009,7.6417,19.1595,8.8816,38.2881,17.8301,57.4342,26.7405,14.094,6.5592,28.1849,13.125,42.2993,19.6401,13.0609,6.0289,26.1566,11.9825,39.2194,18.0072,1.2128.5594,2.2992,1.3927,3.3452,2.3247-53.3687.2258-106.6384.2258-160.099.2258C0,351.2339,0,326.4737,0,301.4136Z"/>
  <path class="cls-1" d="M1345.2842,2.7822c-.9659-.1828-1.9314-.5207-2.8981-.5246-9.7458-.0393-19.492.0082-29.2372-.0826-.8134-.0076-1.6191-.8438-2.4286-1.5782,202.133-.2832,404.2664-.2858,606.3997-.1927.825.0004,2.9616-1.5806,2.88,1.5096-184.7609.3224-369.5217.3249-554.7962.3863-3.178.0172-5.8445-.1139-8.5058-.0448-3.8066.0989-7.6094.3442-11.4137.527Z"/>
  <path class="cls-5" d="M1920,98.5737c-1.7905.2999-3.5809.2999-5.6953.2999v-17.6746c-.3648-.1118-.7297-.2236-1.0945-.3354-3.2184,5.5448-4.4552,11.9761-7.0544,17.8046q-5.3711.5132-7.0631-4.4635c-1.3525-3.9627-2.6819-7.9342-4.1125-11.8688-.3555-.9779-1.0636-1.8276-1.6097-2.7361-.2558.088-.5114.1759-.767.2639v18.7948h-5.7189v-31.543h8.4719c2.5187,7.2006,5.1211,14.6399,8.05,23.0134,1.0625-2.3919,1.9059-3.9828,2.49-5.6638,1.6497-4.7489,3.338-9.4934,4.7189-14.3231.7339-2.5673,1.9314-3.7152,4.643-3.304,1.3534.2052,2.7636.0357,4.4448.0357.2969,10.4667.2969,20.9334.2969,31.7001Z"/>
  <path class="cls-5" d="M1517.5922,302.7314c-8.2723.2282-16.3998.259-24.8234.2436-5.3928-1.0561-10.4872-2.078-15.5867-3.0735-15.1625-2.9598-29.0608-8.9188-41.7066-17.7538-18.4008-12.8554-31.4736-29.9045-39.6797-50.7536-4.8606-12.3494-7.3661-25.0738-7.7398-38.4114-.7436-26.5471,6.9108-50.2242,22.5848-71.517,10.6008-14.4011,24.1294-25.2095,40.0922-33.0085,10.4228-5.0925,21.4052-8.6632,32.9595-10.0204,7.955-.9344,15.9777-1.8938,23.963-1.8378,13.9011.0975,27.2611,3.4399,40.0252,8.912,10.0884,4.3252,19.4484,9.973,27.9531,16.9137,10.1502,8.2836,18.4203,18.2218,25.1631,29.4577,8.0614,13.4332,13.1003,28.0253,14.9981,43.4414,1.4827,12.043,1.4142,24.277,2.0497,36.7147h-165.2692c7.1633,30.7436,56.238,57.5555,97.5744,17.9272,16.2187,8.9346,32.5123,17.9105,49.013,27.1414.2069.2549.2242.5577.2242.5577-6.102,5.959-11.7723,12.4632-18.4241,17.7277-7.0264,5.5611-14.6833,10.5184-22.6128,14.7001-11.8147,6.2305-24.5234,10.1829-37.8947,11.6945-.9225.1043-1.813.4914-2.8633.9443M1454.7814,158.7949c-.3398.8631-.6795,1.7263-1.0136,2.5753h94.2761c-7.3706-18.59-23.7111-30.2284-43.9394-31.665-20.9628-1.4888-39.882,8.4047-49.3231,29.0898Z"/>
  <path class="cls-5" d="M1768.444,302.7142c-9.9511.2452-19.785.2761-29.915.2607-4.032-.8647-7.763-1.7058-11.5045-2.4977-17.8308-3.774-34.1052-10.7936-48.5167-22.1924-13.6944-10.8315-23.9497-24.2521-31.403-39.8725-5.3641-11.2419-9.0689-23.0542-9.9373-35.5568-.4997-7.1943-.9756-14.4526-.5775-21.633.7081-12.7736,4.0125-25.036,9.1056-36.7785,3.7358-8.6132,8.4791-16.6349,14.2667-24.0545,8.4058-10.7759,18.3675-19.7522,30.0664-26.8434,9.6992-5.8792,20.033-10.3568,31.0372-12.8299,8.1634-1.8347,16.5797-2.6652,24.9267-3.5168,4.6752-.477,9.4398-.1577,14.162-.0727,11.6092.2089,22.6312,3.23,33.2962,7.5145,12.4942,5.0194,23.7559,12.0337,33.9008,21.0075,19.2705,17.046,30.5187,38.41,35.788,63.3627,2.9912,14.1652,2.3866,28.4164,2.4237,42.9698h-164.9039c4.5908,15.5648,14.4989,26.238,28.5111,32.6159,24.3725,11.0935,49.2564,5.0094,69.093-14.5681,8.2619,4.5397,16.5983,9.1466,24.9597,13.7074,8.3122,4.5342,16.6498,9.0221,25.0244,13.5563-.093.3262-.0883.7002-.2723.9004-19.3767,21.0617-42.1372,36.4815-70.633,42.3377-2.938.6038-5.8545,1.3101-8.8983,2.1833M1706.8147,152.2512c-1.5911,2.8978-3.1822,5.7956-5.0014,9.109h94.7862c-.2858-.8637-.3869-1.482-.6758-1.9945-3.7292-6.6162-7.8105-12.8624-13.8827-17.7562-13.6714-11.0182-28.9889-14.0507-45.887-10.3203-12.5755,2.7761-22.0803,9.9668-29.3394,20.962Z"/>
  <path class="cls-5" d="M1345.01,2.8189c4.0786-.2195,7.8814-.4649,11.688-.5638,2.6612-.0691,5.3278.062,8.2103.0937,6.063,1.0211,11.9925,1.7175,17.7292,3.1738,6.2344,1.5827,12.2895,3.872,18.7875,5.971-8.7886,19.1862-17.2192,37.5906-25.7489,56.2114-2.1355-.8485-4.1847-1.3958-5.9597-2.4188-4.9917-2.8765-10.5678-3.6996-16.0553-4.0424-9.7156-.6069-17.8023,3.9388-21.6794,13.5386-1.4139,3.5006-1.84,7.5566-1.9742,11.3853-.2864,8.1696-.0875,16.3563-.0875,24.8007h39.4487v56.9248h-39.4467c0,44.9945,0,89.7219.0014,134.7421-20.2844.3239-40.5703.3549-61.1523.3394-.2961-44.901-.2961-89.7555-.2961-134.8788h-26.6255v-56.9192h26.6305v-3.6062c0-7.6756-.1205-15.3534.0237-23.0263.3623-19.2571,5.7966-36.9215,17.677-52.2052,10.0604-12.9423,23.3002-21.4702,39.1762-25.6045,6.3647-1.6574,12.9136-2.6071,19.6531-3.9156Z"/>
  <path class="cls-5" d="M1873.9215,74.0561c-.0016,8.3676-.0016,16.4284-.0016,24.6512h-6.3084v-26.5922h-10.0678v-5.0332h25.8009v4.9128c-2.387,0-4.8037-.1428-7.1859.0806-.7905.0741-1.493,1.0892-2.2372,1.9809Z"/>
  <path class="cls-5" d="M1599.5275,257.6027c-.1405.0621-.1578-.2406-.1627-.3921.0978.009.2005.1695.1627.3921Z"/>
  <path class="cls-5" d="M1240.322,302.6885c-23.2691.2705-46.5412.3014-70.1102.0447-.3086-.5002-.2641-.7354-.3396-.9221-6.486-16.0226-13.0646-32.0087-19.3796-48.0984-.8776-2.236-1.9514-2.5786-3.944-2.5483-5.5384.0841-11.0788.0292-16.6185.0292-26.7395,0-53.4793.037-80.2184-.0609-2.4927-.0091-3.6806.6579-4.6039,3.0524-5.2385,13.5855-10.6304,27.1126-16.0748,40.6174-1.5399,3.82-2.2678,8.6816-8.2241,8.1269-20.0746.0306-40.1491.0613-60.5199.0457-1.4823-.3217-2.6684-.5971-4.267-.9683,1.4192-3.4833,2.732-6.9595,4.2355-10.3511,6.0459-13.6388,12.2102-27.2254,18.2183-40.8808,6.5542-14.8964,12.9431-29.8654,19.4812-44.769,5.107-11.6411,10.3793-23.2096,15.4919-34.8483,5.7429-13.0733,11.3585-26.2025,17.087-39.2822,4.1727-9.5272,8.4677-19.0006,12.6559-28.521,6.047-13.7452,12.0374-27.5152,18.0703-41.2665,2.4903-5.6763,4.881-11.4041,7.6173-16.9607,1.1049-2.2439.9661-3.9924.0324-6.184-4.9348-11.584-9.7239-23.2301-14.5413-34.8638-.1883-.4547-.1507-1.0029-.2423-1.6861h62.3438c6.0717,14.8255,12.1505,29.763,18.3052,44.6692,5.9276,14.356,11.9616,28.668,17.8977,43.0204,6.2142,15.0252,12.3398,30.0871,18.5559,45.1115,5.4962,13.2843,11.072,26.5357,16.5973,39.8081,4.6779,11.237,9.3569,22.4737,13.9934,33.7279,5.3943,13.094,10.7381,26.2088,16.1123,39.3112,6.847,16.6934,13.7016,33.3838,20.5565,50.0739.5957,1.4502,1.2186,2.8892,1.8318,4.573M1078.0996,191.0336h47.8833c-2.9925-7.5302-5.7817-14.5252-8.5533-21.5271-5.826-14.7184-11.6341-29.4438-17.4941-44.1487-.2346-.5886-.9044-1.3589-1.4056-1.3849-.4896-.0254-1.2669.6942-1.5003,1.2592-2.8418,6.8799-5.6059,13.7919-8.3912,20.6952-4.2769,10.5994-8.562,21.1956-12.8283,31.7993-1.7355,4.3133-3.4312,8.6427-5.2809,13.3071h7.5704Z"/>
  <path class="cls-5" d="M867.3576,302.7296c-6.5712.2299-12.9919.2607-19.7086.2453-3.0071-.6465-5.6899-1.4888-8.4336-1.8087-21.6567-2.5248-41.0589-10.6994-57.8816-24.3382-19.8821-16.1192-32.4477-37.1357-38.1891-62.0493-1.5248-6.6166-1.999-13.5013-2.6286-20.2932-1.6073-17.3401,2.0066-33.9232,8.5466-49.799,4.413-10.7126,10.5407-20.5284,18.1346-29.4648,9.873-11.6185,21.5927-20.7363,35.203-27.3676,11.3628-5.5362,23.2937-9.671,35.9844-10.671,10.343-.815,20.7709-1.6133,31.1077-1.1709,12.2943.5261,24.2332,3.5158,35.6127,8.5119,11.5039,5.0507,21.6477,11.9534,30.831,20.5483,8.8416,8.2751,16.023,17.794,22.7696,27.7262.2845.4188.4287.9328.6746,1.4838-16.9571,10.0415-33.8232,20.0291-50.6433,29.9895-3.7472-5.1821-7.0288-10.341-10.9279-14.981-7.7014-9.1648-17.4347-15.216-29.3971-17.1004-9.3859-1.4785-18.6877-1.0122-27.8567,1.8339-6.9154,2.1466-13.1438,5.4357-18.7845,9.9432-11.4928,9.1838-18.1606,21.3481-20.3008,35.603-2.6692,17.7794,1.5082,33.9888,13.4857,47.9213,8.6041,10.0085,19.5708,15.9203,32.23,18.3515,15.2312,2.9251,29.6251.2085,42.3637-9.0735,7.7313-5.6334,12.8958-13.5182,17.9791-21.4257.2782-.4327.6251-.8212,1.1318-1.4795,6.5464,3.8895,13.0266,7.7452,19.5123,11.5916,8.943,5.3038,17.8569,10.6582,26.8498,15.8761,4.4477,2.5807,4.7345,2.6575,1.7095,6.7115-5.4698,7.3308-10.5966,15.068-16.9847,21.5304-11.507,11.641-25.2602,20.1857-40.7534,25.7765-9.1168,3.2898-18.4173,5.6966-28.1141,6.4392-1.1362.087-2.2485.486-3.5224.9394Z"/>
  <path class="cls-3" d="M1021.1058,302.9777c5.6594.5064,6.3873-4.3553,7.9272-8.1753,5.4444-13.5048,10.8362-27.0319,16.0748-40.6174.9233-2.3945,2.1112-3.0615,4.6039-3.0524,26.7391.0979,53.4789.0609,80.2184.0609,5.5397,0,11.0802.0549,16.6185-.0292,1.9926-.0302,3.0664.3124,3.944,2.5483,6.315,16.0896,12.8936,32.0757,19.3796,48.0984.0755.1867.031.4219.0425.8758-.7426.2765-1.4852.3422-2.2277.3423-48.7614.0024-97.5229-.0006-146.5812-.0515Z"/>
  <path class="cls-3" d="M163.3664,301.7407c-9.8235-4.3961-19.424-8.9218-29.053-13.3863-6.0024-2.7829-12.0635-5.439-18.0706-8.2117-15.3683-7.0935-30.7142-14.2355-46.0885-21.316-2.0895-.9623-3.0454-2.1061-3.0391-4.7144.1159-47.9847.0848-95.9697.0848-143.9546v-3.8479c1.7577.493,3.2577.7103,4.5793,1.3167,9.8428,4.5168,19.642,9.1283,29.4704,13.6766,19.3622,8.9603,38.7355,17.8964,58.0996,26.8526,1.144.5291,2.2469,1.1471,3.5821,1.7791,32.0223-14.6472,63.8315-29.3498,96.2686-44.3426v3.911c0,48.1939-.0178,96.3879.0545,144.5818.0035,2.3265-.5797,3.6176-2.7709,4.6175-19.3744,8.8411-38.7035,17.7813-58.0356,26.715-9.5245,4.4014-19.027,8.8508-28.5396,13.2779-2.1098.9818-4.2207,1.9611-6.542,3.0454Z"/>
  <path class="cls-3" d="M1454.9128,158.5919c9.3097-20.4821,28.2289-30.3756,49.1917-28.8868,20.2283,1.4366,36.5687,13.075,43.9394,31.665h-94.2761c.3341-.849.6737-1.7121,1.145-2.7782Z"/>
  <path class="cls-3" d="M1706.8743,152.024c7.1994-10.768,16.7042-17.9587,29.2797-20.7349,16.8981-3.7304,32.2156-.6978,45.887,10.3203,6.0722,4.8937,10.1534,11.1399,13.8827,17.7562.2889.5125.39,1.1308.6758,1.9945h-94.7862c1.8192-3.3133,3.4103-6.2112,5.0611-9.3362Z"/>
  <path class="cls-3" d="M1077.7837,191.0336h-7.2545c1.8496-4.6644,3.5454-8.9937,5.2809-13.3071,4.2663-10.6037,8.5514-21.1998,12.8283-31.7993,2.7854-6.9032,5.5495-13.8152,8.3912-20.6952.2334-.565,1.0107-1.2847,1.5003-1.2592.5012.026,1.171.7963,1.4056,1.3849,5.8599,14.7049,11.668,29.4303,17.4941,44.1487,2.7716,7.002,5.5608,13.997,8.5533,21.5271h-48.1991Z"/>
</svg>