<svg version="1.1" id="Layer_1" xmlns="http://www.w3.org/2000/svg" xmlns:xlink="http://www.w3.org/1999/xlink" x="0px" y="0px"
	 width="100%" viewBox="0 0 500 500" enable-background="new 0 0 500 500" xml:space="preserve">
<path fill="#FFFFFF" opacity="1.000000" stroke="none" 
	d="
M272.000000,501.000000 
	C181.333359,501.000000 91.166710,501.000000 1.000048,501.000000 
	C1.000032,334.333405 1.000032,167.666794 1.000016,1.000138 
	C167.666565,1.000092 334.333130,1.000092 500.999756,1.000046 
	C500.999847,167.666519 500.999847,334.333038 500.999939,500.999786 
	C424.833344,501.000000 348.666656,501.000000 272.000000,501.000000 
M156.967087,271.314301 
	C156.967087,258.760071 156.967087,246.205872 156.967087,233.651642 
	C158.481415,234.886459 159.205399,236.295425 159.796021,237.758255 
	C164.588028,249.626572 169.252426,261.548615 174.257355,273.326080 
	C174.894821,274.826141 177.250870,276.414246 178.847702,276.453339 
	C180.382034,276.490967 182.765762,274.914307 183.393967,273.452789 
	C187.133331,264.753265 190.450928,255.873138 193.953827,247.071014 
	C195.677643,242.739349 197.495224,238.444962 199.270370,234.133713 
	C199.683105,234.243896 200.095840,234.354080 200.508575,234.464279 
	C200.508575,248.385208 200.508575,262.306152 200.508575,276.390137 
	C204.075836,276.390137 207.150101,276.390137 210.385376,276.390137 
	C210.385376,256.890564 210.385376,237.693054 210.385376,218.142715 
	C207.526855,218.142715 205.011520,218.414993 202.578644,218.082932 
	C198.243576,217.491272 196.172638,219.128769 194.610580,223.314804 
	C190.427277,234.525177 185.645615,245.512619 181.072815,256.576721 
	C180.558777,257.820465 179.860199,258.987946 178.818436,261.032104 
	C173.508804,247.302307 168.669189,234.585678 163.605545,221.958908 
	C162.996002,220.438919 161.289093,218.499481 159.889923,218.319962 
	C155.999481,217.820831 152.003174,218.146729 147.838379,218.146729 
	C147.838379,237.873550 147.838379,257.093353 147.838379,276.402313 
	C150.944855,276.402313 153.702515,276.402313 156.701752,276.402313 
	C156.801620,274.842468 156.884308,273.551331 156.967087,271.314301 
M56.473190,198.990891 
	C44.887104,198.990891 33.301014,198.990891 21.633648,198.990891 
	C21.633648,214.646820 21.633648,229.693680 21.633648,244.733551 
	C37.035770,244.733551 52.095280,244.733551 67.248604,244.733551 
	C67.248604,229.368317 67.248604,214.316711 67.248604,198.990891 
	C63.765701,198.990891 60.613865,198.990891 56.473190,198.990891 
M118.512398,232.481537 
	C118.512398,221.403198 118.512398,210.324875 118.512398,199.323517 
	C102.789742,199.323517 87.743874,199.323517 72.667564,199.323517 
	C72.667564,214.690720 72.667564,229.727432 72.667564,244.706833 
	C88.057983,244.706833 103.098274,244.706833 118.511993,244.706833 
	C118.511993,240.741852 118.511993,237.106583 118.512398,232.481537 
M72.299614,285.464020 
	C72.299614,288.878479 72.299614,292.292908 72.299614,295.586670 
	C88.122726,295.586670 103.153229,295.586670 118.151581,295.586670 
	C118.151581,280.202026 118.151581,265.186096 118.151581,250.257202 
	C102.722885,250.257202 87.694756,250.257202 72.299858,250.257202 
	C72.299858,261.913818 72.299858,273.193481 72.299614,285.464020 
M44.500000,295.956512 
	C52.073452,295.956512 59.646908,295.956512 67.202026,295.956512 
	C67.202026,280.221130 67.202026,265.195343 67.202026,250.236969 
	C51.762989,250.236969 36.719372,250.236969 21.678093,250.236969 
	C21.678093,265.638184 21.678093,280.669800 21.678093,295.956512 
	C29.210693,295.956512 36.355373,295.956512 44.500000,295.956512 
M441.894897,229.782959 
	C442.489075,227.771072 442.487213,224.738007 443.806305,223.968094 
	C446.260284,222.535812 449.483856,222.422150 453.548431,221.494553 
	C452.583710,219.125534 452.092773,214.827713 450.401184,214.287140 
	C441.867889,211.560165 433.013977,217.905243 431.863251,226.867172 
	C431.549286,229.312531 431.531006,231.795837 431.367065,234.421402 
	C429.061096,234.716492 426.999817,234.980270 424.925690,235.245697 
	C424.925690,237.851608 424.925690,240.126526 424.925690,242.570740 
	C427.245514,242.831406 429.313690,243.063782 431.916779,243.356277 
	C431.916779,254.592270 431.916779,265.490997 431.916779,276.223785 
	C435.565430,276.223785 438.608429,276.223785 442.186707,276.223785 
	C442.186707,264.876526 442.186707,253.979599 442.186707,243.292755 
	C447.154755,243.292755 451.566345,243.292755 456.142029,243.292755 
	C456.142029,250.340591 455.954437,256.999268 456.228455,263.638855 
	C456.348785,266.553528 456.915680,269.664124 458.153320,272.271057 
	C460.333221,276.862854 468.236023,279.352783 473.579956,276.631897 
	C475.423889,275.693054 475.745880,271.765045 476.993469,268.622070 
	C468.675385,269.403442 466.990448,268.879425 466.740265,264.612457 
	C466.325958,257.545715 466.627625,250.436996 466.627625,243.114197 
	C469.898132,242.898209 472.811035,242.705856 475.704376,242.514786 
	C475.704376,239.730377 475.704376,237.329193 475.704376,234.756073 
	C474.400513,234.684082 473.393585,234.462372 472.440613,234.603928 
	C467.736572,235.302612 465.644287,233.573441 466.291382,228.639572 
	C466.554230,226.635529 466.152374,224.544327 466.067444,222.792389 
	C457.517639,222.613327 454.692108,226.961502 456.151672,234.568207 
	C452.011200,234.568207 448.680817,234.411789 445.372375,234.614044 
	C442.319855,234.800644 441.603424,233.291992 441.894897,229.782959 
M301.924500,261.475952 
	C304.633575,276.968384 320.956055,280.839172 332.786621,275.635712 
	C341.362946,271.863586 345.989716,261.017761 343.892303,250.130768 
	C341.963348,240.118134 334.965118,234.163666 324.761658,233.853470 
	C308.583160,233.361618 299.765198,243.668777 301.924500,261.475952 
M423.755005,252.848618 
	C421.620575,236.182373 409.816833,232.635757 399.025940,233.996643 
	C387.805511,235.411682 381.104797,243.580612 381.036255,255.920059 
	C380.968048,268.201691 387.206085,275.918793 398.534821,277.567413 
	C413.524048,279.748749 423.762299,270.095459 423.755005,252.848618 
M370.958557,254.524338 
	C367.823090,253.002533 364.492981,251.767853 361.637634,249.832718 
	C360.294159,248.922195 358.960419,246.458862 359.275940,245.076630 
	C359.584045,243.726990 362.001434,241.954300 363.487701,241.959122 
	C367.001312,241.970490 370.511841,242.927399 374.027985,243.502686 
	C375.394073,235.016983 374.391083,233.584793 365.884247,233.333405 
	C363.131592,233.252045 360.216797,233.782471 357.609741,234.698044 
	C352.739685,236.408356 349.491455,239.756805 349.009460,245.233948 
	C348.510498,250.903946 351.021790,254.840073 355.948212,257.365112 
	C358.016907,258.425446 360.498199,258.949829 362.182800,260.417145 
	C363.972992,261.976440 365.041382,264.364471 366.424957,266.390625 
	C364.193329,267.373474 361.922729,269.235931 359.738983,269.139008 
	C356.203857,268.982208 352.725830,267.538666 348.872437,266.548126 
	C348.872437,268.437408 348.587616,270.470062 348.969788,272.368469 
	C349.237000,273.695709 350.328796,275.826050 351.202667,275.903625 
	C356.563690,276.379517 362.054749,277.031158 367.331604,276.332855 
	C372.192596,275.689575 375.627319,272.123322 376.596252,267.029602 
	C377.553162,261.999115 375.895844,257.852325 370.958557,254.524338 
M248.560913,235.857239 
	C238.269791,241.443207 233.907043,253.094162 237.834518,264.502777 
	C241.199860,274.278534 250.884872,279.215668 262.580322,277.117523 
	C269.759888,275.829529 270.399506,274.742340 268.818054,266.515137 
	C259.204803,270.319763 253.545593,269.910339 249.652985,265.128632 
	C246.211151,260.900665 245.685715,252.429764 248.990082,247.696609 
	C254.374954,239.983353 261.523132,241.313309 268.812256,244.779053 
	C269.637085,234.982193 269.299255,234.260147 261.008484,233.990753 
	C257.108643,233.864029 253.169037,234.960358 248.560913,235.857239 
M276.535919,244.557785 
	C276.535919,255.137390 276.535919,265.717010 276.535919,276.294128 
	C280.190521,276.294128 283.084534,276.294128 286.440247,276.294128 
	C286.440247,269.139191 286.295197,262.349487 286.474182,255.568314 
	C286.744446,245.327118 290.495880,242.245468 301.380798,243.904526 
	C300.859802,240.559311 300.379242,237.473648 299.898682,234.388000 
	C295.505280,235.360718 291.111877,236.333435 286.571442,237.338715 
	C285.641846,234.350250 283.771332,233.802795 276.536743,235.753479 
	C276.536743,238.297028 276.536743,240.938416 276.535919,244.557785 
M220.015228,237.733307 
	C220.015228,250.617279 220.015228,263.501251 220.015228,276.313721 
	C223.787216,276.313721 226.696793,276.313721 229.596130,276.313721 
	C229.596130,262.372528 229.596130,248.806168 229.596130,233.884384 
	C226.017395,234.971069 223.028961,235.878494 220.015228,237.733307 
M219.920593,219.601761 
	C217.964081,222.743317 218.627426,226.052048 221.650970,227.214951 
	C223.885040,228.074203 227.444046,227.241257 229.572586,225.863876 
	C230.597214,225.200821 230.512146,221.021362 229.466354,219.349579 
	C227.515900,216.231552 224.211609,216.333771 221.125916,218.302490 
	C220.850021,218.478516 220.632462,218.746002 219.920593,219.601761 
z"/>
<path fill="#797979" opacity="1.000000" stroke="none" 
	d="
M156.967041,271.787231 
	C156.884308,273.551331 156.801620,274.842468 156.701752,276.402313 
	C153.702515,276.402313 150.944855,276.402313 147.838379,276.402313 
	C147.838379,257.093353 147.838379,237.873550 147.838379,218.146729 
	C152.003174,218.146729 155.999481,217.820831 159.889923,218.319962 
	C161.289093,218.499481 162.996002,220.438919 163.605545,221.958908 
	C168.669189,234.585678 173.508804,247.302307 178.818436,261.032104 
	C179.860199,258.987946 180.558777,257.820465 181.072815,256.576721 
	C185.645615,245.512619 190.427277,234.525177 194.610580,223.314804 
	C196.172638,219.128769 198.243576,217.491272 202.578644,218.082932 
	C205.011520,218.414993 207.526855,218.142715 210.385376,218.142715 
	C210.385376,237.693054 210.385376,256.890564 210.385376,276.390137 
	C207.150101,276.390137 204.075836,276.390137 200.508575,276.390137 
	C200.508575,262.306152 200.508575,248.385208 200.508575,234.464279 
	C200.095840,234.354080 199.683105,234.243896 199.270370,234.133713 
	C197.495224,238.444962 195.677643,242.739349 193.953827,247.071014 
	C190.450928,255.873138 187.133331,264.753265 183.393967,273.452789 
	C182.765762,274.914307 180.382034,276.490967 178.847702,276.453339 
	C177.250870,276.414246 174.894821,274.826141 174.257355,273.326080 
	C169.252426,261.548615 164.588028,249.626572 159.796021,237.758255 
	C159.205399,236.295425 158.481415,234.886459 156.967087,233.651642 
	C156.967087,246.205872 156.967087,258.760071 156.967041,271.787231 
z"/>
<path fill="#F25326" opacity="1.000000" stroke="none" 
	d="
M56.967609,198.990891 
	C60.613865,198.990891 63.765701,198.990891 67.248604,198.990891 
	C67.248604,214.316711 67.248604,229.368317 67.248604,244.733551 
	C52.095280,244.733551 37.035770,244.733551 21.633648,244.733551 
	C21.633648,229.693680 21.633648,214.646820 21.633648,198.990891 
	C33.301014,198.990891 44.887104,198.990891 56.967609,198.990891 
z"/>
<path fill="#80BB02" opacity="1.000000" stroke="none" 
	d="
M118.512192,232.976410 
	C118.511993,237.106583 118.511993,240.741852 118.511993,244.706833 
	C103.098274,244.706833 88.057983,244.706833 72.667564,244.706833 
	C72.667564,229.727432 72.667564,214.690720 72.667564,199.323517 
	C87.743874,199.323517 102.789742,199.323517 118.512398,199.323517 
	C118.512398,210.324875 118.512398,221.403198 118.512192,232.976410 
z"/>
<path fill="#FFBA03" opacity="1.000000" stroke="none" 
	d="
M72.299736,284.968567 
	C72.299858,273.193481 72.299858,261.913818 72.299858,250.257202 
	C87.694756,250.257202 102.722885,250.257202 118.151581,250.257202 
	C118.151581,265.186096 118.151581,280.202026 118.151581,295.586670 
	C103.153229,295.586670 88.122726,295.586670 72.299614,295.586670 
	C72.299614,292.292908 72.299614,288.878479 72.299736,284.968567 
z"/>
<path fill="#05A6F0" opacity="1.000000" stroke="none" 
	d="
M44.000023,295.956512 
	C36.355373,295.956512 29.210693,295.956512 21.678093,295.956512 
	C21.678093,280.669800 21.678093,265.638184 21.678093,250.236969 
	C36.719372,250.236969 51.762989,250.236969 67.202026,250.236969 
	C67.202026,265.195343 67.202026,280.221130 67.202026,295.956512 
	C59.646908,295.956512 52.073452,295.956512 44.000023,295.956512 
z"/>
<path fill="#787878" opacity="1.000000" stroke="none" 
	d="
M441.893036,230.242081 
	C441.603424,233.291992 442.319855,234.800644 445.372375,234.614044 
	C448.680817,234.411789 452.011200,234.568207 456.151672,234.568207 
	C454.692108,226.961502 457.517639,222.613327 466.067444,222.792389 
	C466.152374,224.544327 466.554230,226.635529 466.291382,228.639572 
	C465.644287,233.573441 467.736572,235.302612 472.440613,234.603928 
	C473.393585,234.462372 474.400513,234.684082 475.704376,234.756073 
	C475.704376,237.329193 475.704376,239.730377 475.704376,242.514786 
	C472.811035,242.705856 469.898132,242.898209 466.627625,243.114197 
	C466.627625,250.436996 466.325958,257.545715 466.740265,264.612457 
	C466.990448,268.879425 468.675385,269.403442 476.993469,268.622070 
	C475.745880,271.765045 475.423889,275.693054 473.579956,276.631897 
	C468.236023,279.352783 460.333221,276.862854 458.153320,272.271057 
	C456.915680,269.664124 456.348785,266.553528 456.228455,263.638855 
	C455.954437,256.999268 456.142029,250.340591 456.142029,243.292755 
	C451.566345,243.292755 447.154755,243.292755 442.186707,243.292755 
	C442.186707,253.979599 442.186707,264.876526 442.186707,276.223785 
	C438.608429,276.223785 435.565430,276.223785 431.916779,276.223785 
	C431.916779,265.490997 431.916779,254.592270 431.916779,243.356277 
	C429.313690,243.063782 427.245514,242.831406 424.925690,242.570740 
	C424.925690,240.126526 424.925690,237.851608 424.925690,235.245697 
	C426.999817,234.980270 429.061096,234.716492 431.367065,234.421402 
	C431.531006,231.795837 431.549286,229.312531 431.863251,226.867172 
	C433.013977,217.905243 441.867889,211.560165 450.401184,214.287140 
	C452.092773,214.827713 452.583710,219.125534 453.548431,221.494553 
	C449.483856,222.422150 446.260284,222.535812 443.806305,223.968094 
	C442.487213,224.738007 442.489075,227.771072 441.893036,230.242081 
z"/>
<path fill="#777777" opacity="1.000000" stroke="none" 
	d="
M301.881470,261.061951 
	C299.765198,243.668777 308.583160,233.361618 324.761658,233.853470 
	C334.965118,234.163666 341.963348,240.118134 343.892303,250.130768 
	C345.989716,261.017761 341.362946,271.863586 332.786621,275.635712 
	C320.956055,280.839172 304.633575,276.968384 301.881470,261.061951 
M316.059113,244.444839 
	C311.218597,248.820374 311.531708,254.554153 312.205353,260.198242 
	C312.904755,266.058167 317.137878,269.257874 323.379272,269.199829 
	C329.330536,269.144470 333.048279,265.975952 333.836761,260.045807 
	C334.119446,257.920044 334.078827,255.731033 333.987610,253.579285 
	C333.555481,243.385834 325.761566,239.076096 316.059113,244.444839 
z"/>
<path fill="#777777" opacity="1.000000" stroke="none" 
	d="
M423.792542,253.282990 
	C423.762299,270.095459 413.524048,279.748749 398.534821,277.567413 
	C387.206085,275.918793 380.968048,268.201691 381.036255,255.920059 
	C381.104797,243.580612 387.805511,235.411682 399.025940,233.996643 
	C409.816833,232.635757 421.620575,236.182373 423.792542,253.282990 
M392.322632,262.772278 
	C395.661804,268.498108 399.114502,270.188873 405.540924,268.979309 
	C411.076477,267.937408 412.932648,263.711151 413.456421,258.828766 
	C413.752136,256.072662 413.595612,253.169632 413.066589,250.444641 
	C412.055969,245.238831 408.713440,242.347061 403.999237,242.003998 
	C398.319702,241.590652 393.645447,244.060120 392.465576,249.323593 
	C391.557922,253.372620 392.167572,257.761749 392.322632,262.772278 
z"/>
<path fill="#787878" opacity="1.000000" stroke="none" 
	d="
M371.273499,254.710602 
	C375.895844,257.852325 377.553162,261.999115 376.596252,267.029602 
	C375.627319,272.123322 372.192596,275.689575 367.331604,276.332855 
	C362.054749,277.031158 356.563690,276.379517 351.202667,275.903625 
	C350.328796,275.826050 349.237000,273.695709 348.969788,272.368469 
	C348.587616,270.470062 348.872437,268.437408 348.872437,266.548126 
	C352.725830,267.538666 356.203857,268.982208 359.738983,269.139008 
	C361.922729,269.235931 364.193329,267.373474 366.424957,266.390625 
	C365.041382,264.364471 363.972992,261.976440 362.182800,260.417145 
	C360.498199,258.949829 358.016907,258.425446 355.948212,257.365112 
	C351.021790,254.840073 348.510498,250.903946 349.009460,245.233948 
	C349.491455,239.756805 352.739685,236.408356 357.609741,234.698044 
	C360.216797,233.782471 363.131592,233.252045 365.884247,233.333405 
	C374.391083,233.584793 375.394073,235.016983 374.027985,243.502686 
	C370.511841,242.927399 367.001312,241.970490 363.487701,241.959122 
	C362.001434,241.954300 359.584045,243.726990 359.275940,245.076630 
	C358.960419,246.458862 360.294159,248.922195 361.637634,249.832718 
	C364.492981,251.767853 367.823090,253.002533 371.273499,254.710602 
z"/>
<path fill="#777777" opacity="1.000000" stroke="none" 
	d="
M248.904175,235.679840 
	C253.169037,234.960358 257.108643,233.864029 261.008484,233.990753 
	C269.299255,234.260147 269.637085,234.982193 268.812256,244.779053 
	C261.523132,241.313309 254.374954,239.983353 248.990082,247.696609 
	C245.685715,252.429764 246.211151,260.900665 249.652985,265.128632 
	C253.545593,269.910339 259.204803,270.319763 268.818054,266.515137 
	C270.399506,274.742340 269.759888,275.829529 262.580322,277.117523 
	C250.884872,279.215668 241.199860,274.278534 237.834518,264.502777 
	C233.907043,253.094162 238.269791,241.443207 248.904175,235.679840 
z"/>
<path fill="#767676" opacity="1.000000" stroke="none" 
	d="
M276.536316,244.068802 
	C276.536743,240.938416 276.536743,238.297028 276.536743,235.753479 
	C283.771332,233.802795 285.641846,234.350250 286.571442,237.338715 
	C291.111877,236.333435 295.505280,235.360718 299.898682,234.388000 
	C300.379242,237.473648 300.859802,240.559311 301.380798,243.904526 
	C290.495880,242.245468 286.744446,245.327118 286.474182,255.568314 
	C286.295197,262.349487 286.440247,269.139191 286.440247,276.294128 
	C283.084534,276.294128 280.190521,276.294128 276.535919,276.294128 
	C276.535919,265.717010 276.535919,255.137390 276.536316,244.068802 
z"/>
<path fill="#797979" opacity="1.000000" stroke="none" 
	d="
M220.027893,237.259613 
	C223.028961,235.878494 226.017395,234.971069 229.596130,233.884384 
	C229.596130,248.806168 229.596130,262.372528 229.596130,276.313721 
	C226.696793,276.313721 223.787216,276.313721 220.015228,276.313721 
	C220.015228,263.501251 220.015228,250.617279 220.027893,237.259613 
z"/>
<path fill="#797979" opacity="1.000000" stroke="none" 
	d="
M220.154205,219.286392 
	C220.632462,218.746002 220.850021,218.478516 221.125916,218.302490 
	C224.211609,216.333771 227.515900,216.231552 229.466354,219.349579 
	C230.512146,221.021362 230.597214,225.200821 229.572586,225.863876 
	C227.444046,227.241257 223.885040,228.074203 221.650970,227.214951 
	C218.627426,226.052048 217.964081,222.743317 220.154205,219.286392 
z"/>
<path fill="#FCFCFC" opacity="1.000000" stroke="none" 
	d="
M316.355164,244.196777 
	C325.761566,239.076096 333.555481,243.385834 333.987610,253.579285 
	C334.078827,255.731033 334.119446,257.920044 333.836761,260.045807 
	C333.048279,265.975952 329.330536,269.144470 323.379272,269.199829 
	C317.137878,269.257874 312.904755,266.058167 312.205353,260.198242 
	C311.531708,254.554153 311.218597,248.820374 316.355164,244.196777 
z"/>
<path fill="#FCFCFC" opacity="1.000000" stroke="none" 
	d="
M392.212585,262.385986 
	C392.167572,257.761749 391.557922,253.372620 392.465576,249.323593 
	C393.645447,244.060120 398.319702,241.590652 403.999237,242.003998 
	C408.713440,242.347061 412.055969,245.238831 413.066589,250.444641 
	C413.595612,253.169632 413.752136,256.072662 413.456421,258.828766 
	C412.932648,263.711151 411.076477,267.937408 405.540924,268.979309 
	C399.114502,270.188873 395.661804,268.498108 392.212585,262.385986 
z"/>
</svg>