<svg width="500" height="500" viewBox="0 0 500 500" fill="none" xmlns="http://www.w3.org/2000/svg">
<path d="M89.0568 188.616C89.9157 188.509 90.7745 188.616 91.6334 189.046C85.9434 196.883 84.8698 211.591 84.7625 217.174H88.7347C88.9494 209.873 90.3451 197.312 94.8542 191.408C100.115 196.883 103.443 208.907 104.516 217.174H108.489C107.415 208.156 103.765 195.165 97.7528 188.724C98.6117 188.294 99.5779 187.972 100.544 187.972C102.369 187.972 104.087 188.831 105.697 190.656C111.495 196.99 114.071 211.698 114.608 217.174H118.58C118.151 211.054 115.574 197.205 109.884 189.583C107.2 185.932 103.98 184 100.437 184C98.0749 184 96.1425 184.752 94.4247 186.04C92.4923 184.966 90.5598 184.429 88.52 184.644C77.9989 185.718 75.2076 202.144 74.8855 217.066H78.8578C79.2872 199.567 82.9374 189.261 89.0568 188.616Z" fill="#F58357"/>
<path d="M144.776 216.959C144.776 216.422 144.346 216.1 143.702 216.1L133.181 214.597C133.074 214.597 132.966 214.597 132.859 214.597C128.779 214.597 114.071 214.597 90.9892 214.597C67.9071 214.597 53.0917 214.919 49.0121 214.919C48.3679 214.919 47.8311 215.349 47.8311 215.993C47.6164 219.965 46.6502 235.639 45.3619 259.688C43.9662 285.132 43.2147 298.981 43 302.738C43 303.275 43.4294 303.705 43.9662 303.812L85.7286 310.146L126.954 316.48C127.276 316.48 127.598 316.48 127.92 316.265L148.319 303.168C148.855 302.846 149.177 302.202 149.177 301.557L144.776 216.959Z" fill="url(#paint0_linear_2426_4032)"/>
<path d="M102.799 285.239H101.296V284.702H104.731V285.239H103.336V289.211H102.799V285.239Z" fill="white"/>
<path d="M107.201 289.319L106.02 285.668V289.319H105.483V284.809H106.342L107.63 288.674L108.918 284.809H109.67V289.319H109.133V285.668L107.952 289.319H107.201Z" fill="white"/>
<path d="M79.0726 234.244V282.984L90.0232 286.527V245.624C90.0232 243.691 90.8821 242.403 92.2777 242.832C94.1028 243.369 94.4249 245.087 94.4249 247.019V263.338C101.296 266.666 106.664 263.338 106.664 254.534C106.664 245.516 103.55 241.544 94.2102 238.323C90.4526 237.25 83.689 235.103 79.0726 234.244Z" fill="white"/>
<path d="M92.0631 279.442L109.67 273.107C111.71 272.356 111.924 271.39 110.314 270.853C108.704 270.316 105.805 270.423 103.765 271.175L92.0631 275.362V268.706L92.7073 268.491C92.7073 268.491 96.1427 267.31 100.866 266.773C105.59 266.237 111.495 266.881 116.111 268.598C121.265 270.209 121.909 272.678 120.513 274.396C119.225 276.006 116.004 277.294 116.004 277.294L92.0631 285.99V279.442Z" fill="white"/>
<path d="M58.9965 278.69C53.736 277.187 52.7698 274.074 55.239 272.249C57.4935 270.531 61.2511 269.35 61.2511 269.35L76.9254 263.66V270.101L65.6528 274.288C63.6129 275.04 63.3982 276.006 65.0086 276.543C66.619 277.08 69.5177 276.972 71.5575 276.221L77.0327 274.288V279.978C76.7107 280.086 76.2812 280.086 75.9592 280.193C70.3765 281.052 64.6865 280.623 58.9965 278.69Z" fill="white"/>
<path fill-rule="evenodd" clip-rule="evenodd" d="M202.409 271.294C199.641 270.188 196.651 269.631 193.716 269.631C189.955 269.631 185.745 271.069 185.745 275.668C185.745 279.209 187.847 281.148 193.994 283.529C201.466 286.409 205.344 289.397 205.344 295.542C205.344 303.347 198.59 306.449 192.055 306.449C188.567 306.449 184.083 305.674 180.375 304.01L181.593 299.861C185.193 301.632 189.065 302.408 192.167 302.408C196.927 302.408 200.527 300.302 200.527 295.875C200.527 291.834 197.037 289.785 191.061 287.348C184.304 284.638 180.93 281.258 180.93 276C180.93 268.692 187.792 265.591 193.774 265.591C197.262 265.591 200.749 266.145 203.57 267.253L202.409 271.294Z" fill="black"/>
<path fill-rule="evenodd" clip-rule="evenodd" d="M206.724 276.552H211.927V269.19H216.633V276.552H223.387V280.264H216.633V297.757C216.633 301.741 217.021 302.462 220.342 302.462C221.617 302.462 222.444 302.352 223.442 302.241V305.784C222.389 305.95 220.56 306.172 219.013 306.172C212.923 306.172 211.927 303.235 211.927 298.033V280.264H206.724V276.552Z" fill="black"/>
<path fill-rule="evenodd" clip-rule="evenodd" d="M238.608 279.598C232.518 279.598 229.75 284.359 229.75 291.109C229.75 297.923 232.628 302.74 238.608 302.74C244.7 302.74 247.468 297.923 247.468 291.109C247.468 284.359 244.7 279.598 238.608 279.598ZM238.608 306.449C230.25 306.449 225.044 300.634 225.044 291.109C225.044 281.592 230.25 275.887 238.608 275.887C246.968 275.887 252.17 281.592 252.17 291.109C252.17 300.634 246.968 306.449 238.608 306.449Z" fill="black"/>
<path fill-rule="evenodd" clip-rule="evenodd" d="M270.107 279.764C269.44 279.652 268.611 279.598 267.672 279.598C263.794 279.598 260.694 281.87 260.694 288.679V305.782H255.99V276.551H260.525V280.484H260.584C262.025 277.384 264.458 275.886 268.221 275.886C268.721 275.886 269.495 275.886 270.327 276L270.107 279.764Z" fill="black"/>
<path fill-rule="evenodd" clip-rule="evenodd" d="M274.643 288.733H291.138V288.511C291.138 282.92 287.989 279.598 283.334 279.598C278.076 279.598 275.141 283.363 274.643 288.733ZM274.643 292.443C274.976 298.697 278.795 302.74 284.995 302.74C287.711 302.74 290.585 302.242 292.859 301.301L293.632 304.899C291.195 305.95 287.93 306.448 284.887 306.448C275.196 306.448 270.104 299.915 270.104 291.225C270.104 282.367 275.141 275.887 283.279 275.887C291.471 275.887 295.4 281.533 295.4 290.172V292.443H274.643Z" fill="black"/>
<path fill-rule="evenodd" clip-rule="evenodd" d="M199.539 210.908L182.749 210.898C182.68 210.898 182.625 210.953 182.625 211.02V250.291C182.625 250.352 182.68 250.409 182.749 250.409H189.554C189.617 250.409 189.672 250.352 189.672 250.291L189.676 215.284C189.676 215.258 189.699 215.226 189.721 215.226L197.498 215.213C200.335 215.213 201.895 218.069 201.895 223.259C201.895 228.448 200.335 231.304 197.494 231.304H192.823C192.756 231.304 192.701 231.361 192.701 231.424V235.495C192.701 235.566 192.756 235.619 192.823 235.619H199.539C201.891 235.619 204.208 234.532 205.895 232.635C207.885 230.399 208.938 227.167 208.938 223.291C208.938 215.772 205.25 210.908 199.539 210.908Z" fill="black"/>
<path fill-rule="evenodd" clip-rule="evenodd" d="M220.049 210.899H213.246C213.181 210.899 213.128 210.954 213.128 211.021V250.29C213.128 250.353 213.181 250.41 213.246 250.41H220.049C220.116 250.41 220.169 250.353 220.169 250.29V211.021C220.169 210.954 220.116 210.899 220.049 210.899Z" fill="black"/>
<path fill-rule="evenodd" clip-rule="evenodd" d="M249.752 220.454C249.752 220.387 249.699 220.336 249.63 220.336H237.487C226.627 220.336 225.238 228.335 225.238 235.341L225.24 241.404C225.24 246.624 228.484 250.409 232.956 250.409H239.564C239.634 250.409 239.686 250.352 239.686 250.291V246.218C239.686 246.145 239.634 246.092 239.564 246.092L234.839 246.1C233.743 246.076 232.282 245.614 232.282 241.882V235.339C232.279 230.983 232.69 228.211 233.582 226.625C234.558 224.873 236.109 224.645 237.487 224.645H242.676C242.701 224.645 242.721 224.672 242.721 224.702L242.711 250.291C242.711 250.352 242.766 250.409 242.835 250.409H249.636C249.699 250.409 249.756 250.352 249.756 250.291L249.752 220.641V220.454Z" fill="black"/>
<path fill-rule="evenodd" clip-rule="evenodd" d="M298.725 227.345L295.372 227.089C292.861 226.869 290.987 225.477 290.987 221.347C290.987 216.529 293.16 215.228 296.03 215.228H305.305C305.368 215.228 305.419 215.173 305.419 215.106V211.019C305.419 210.954 305.368 210.899 305.305 210.899H305.114H305.104L295.065 210.903C288.737 210.903 284.22 214.621 284.22 222.04V222.351C284.22 228.221 287.826 232.439 293.19 232.843L296.536 233.095C299.073 233.288 300.644 235.555 300.644 239.014V239.992C300.644 242.159 300.114 246.094 295.477 246.094H286.032H285.847C285.782 246.094 285.729 246.153 285.729 246.22V250.29C285.729 250.353 285.782 250.41 285.847 250.41H297.809C301.498 250.41 307.685 248.914 307.685 238.866C307.685 235.254 306.84 232.37 305.175 230.309C303.738 228.538 301.63 227.565 298.725 227.345Z" fill="black"/>
<path fill-rule="evenodd" clip-rule="evenodd" d="M354.496 220.454C354.496 220.387 354.439 220.336 354.376 220.336H342.231C331.372 220.336 329.972 228.335 329.972 235.341L329.98 241.404C329.98 246.624 333.228 250.409 337.692 250.409H344.302C344.373 250.409 344.428 250.352 344.428 250.291V246.218C344.428 246.145 344.373 246.092 344.302 246.092L339.58 246.1C338.476 246.076 337.025 245.614 337.021 241.882V235.339C337.019 230.983 337.429 228.211 338.324 226.625C339.302 224.873 340.846 224.645 342.225 224.645H347.414C347.438 224.645 347.461 224.672 347.461 224.702L347.453 250.291C347.453 250.352 347.509 250.409 347.572 250.409H354.376C354.439 250.409 354.496 250.352 354.496 250.291V220.454Z" fill="black"/>
<path fill-rule="evenodd" clip-rule="evenodd" d="M327.13 220.336H319.768C319.744 220.336 319.727 220.311 319.727 220.287L319.717 220.262L319.727 215.347C319.727 215.282 319.669 215.226 319.604 215.226H312.8C312.733 215.226 312.676 215.282 312.676 215.347V241.412C312.676 246.628 315.924 250.409 320.396 250.409H325.271C325.336 250.409 325.397 250.352 325.397 250.291V246.219C325.397 246.152 325.336 246.093 325.271 246.093H322.274C321.512 246.081 319.717 246.041 319.717 242.201V224.673C319.717 224.651 319.742 224.635 319.766 224.635C322.018 224.643 327.13 224.635 327.13 224.635C327.195 224.635 327.25 224.574 327.25 224.511V220.454C327.25 220.388 327.195 220.336 327.13 220.336Z" fill="black"/>
<path fill-rule="evenodd" clip-rule="evenodd" d="M374.655 220.336H367.289C367.267 220.336 367.246 220.311 367.246 220.287L367.244 220.262L367.246 215.347C367.246 215.282 367.191 215.226 367.13 215.226H360.325C360.256 215.226 360.195 215.282 360.195 215.347V241.412C360.195 246.628 363.447 250.409 367.917 250.409H372.796C372.865 250.409 372.917 250.352 372.917 250.291V246.219C372.917 246.152 372.865 246.093 372.796 246.093H369.799C369.033 246.081 367.244 246.041 367.244 242.201V224.673C367.244 224.651 367.263 224.635 367.287 224.635C369.539 224.643 374.655 224.635 374.655 224.635C374.722 224.635 374.775 224.574 374.775 224.511V220.454C374.775 220.388 374.722 220.336 374.655 220.336Z" fill="black"/>
<path fill-rule="evenodd" clip-rule="evenodd" d="M385.91 220.336H379.104C379.041 220.336 378.984 220.388 378.984 220.455V250.291C378.984 250.352 379.041 250.409 379.104 250.409H385.91C385.973 250.409 386.027 250.352 386.027 250.291V220.455C386.027 220.388 385.973 220.336 385.91 220.336Z" fill="black"/>
<path fill-rule="evenodd" clip-rule="evenodd" d="M385.91 210.899H379.104C379.041 210.899 378.984 210.954 378.984 211.021V216.715C378.984 216.782 379.041 216.837 379.104 216.837H385.91C385.973 216.837 386.027 216.782 386.027 216.715V211.021C386.027 210.954 385.973 210.899 385.91 210.899Z" fill="black"/>
<path fill-rule="evenodd" clip-rule="evenodd" d="M432.963 220.336H420.812C420.749 220.336 420.694 220.388 420.694 220.455L420.688 250.291C420.688 250.352 420.749 250.409 420.812 250.409H427.612C427.681 250.409 427.736 250.352 427.736 250.291L427.721 224.69C427.721 224.667 427.746 224.643 427.774 224.643H432.959C434.34 224.643 435.89 224.862 436.87 226.474C437.756 227.946 438.175 230.509 438.175 234.554C438.179 234.731 438.163 250.291 438.163 250.291C438.163 250.352 438.222 250.409 438.291 250.409H445.088C445.159 250.409 445.212 250.352 445.212 250.291V235.341C445.212 228.336 443.818 220.336 432.963 220.336Z" fill="black"/>
<path fill-rule="evenodd" clip-rule="evenodd" d="M407.693 244.126C406.622 245.881 404.903 246.123 403.374 246.123C401.848 246.123 400.14 245.881 399.053 244.126C398.077 242.533 397.624 239.756 397.624 235.38V235.345C397.624 230.168 398.256 227.229 399.693 225.822C400.534 224.995 401.638 224.645 403.374 224.645C405.11 224.645 406.212 224.995 407.063 225.822C408.486 227.229 409.131 230.176 409.131 235.38C409.131 239.756 408.675 242.537 407.693 244.126ZM403.374 220.334C392.01 220.334 390.55 228.377 390.55 235.38C390.55 242.389 392.01 250.432 403.372 250.432C414.739 250.432 416.196 242.389 416.196 235.38C416.196 228.377 414.739 220.334 403.374 220.334Z" fill="black"/>
<path fill-rule="evenodd" clip-rule="evenodd" d="M253.585 220.336C253.52 220.336 253.483 220.386 253.503 220.449L263.589 250.016C263.608 250.081 263.608 250.185 263.581 250.244L257.914 264.906C257.888 264.965 257.926 265.021 257.99 265.021H263.903C263.972 265.021 264.049 264.965 264.073 264.906L281.81 220.449C281.831 220.386 281.802 220.336 281.727 220.336H275.275C275.206 220.336 275.131 220.386 275.104 220.449L267.592 239.878C267.565 239.945 267.531 239.943 267.506 239.878L260.892 220.449C260.868 220.386 260.797 220.334 260.727 220.334L253.585 220.336Z" fill="black"/>
<path fill-rule="evenodd" clip-rule="evenodd" d="M449.919 245.715H448.173V245.115H452.342V245.715H450.61V250.416H449.919V245.715Z" fill="black"/>
<path fill-rule="evenodd" clip-rule="evenodd" d="M455.162 250.415L453.709 246.106V250.415H453.016V245.114H453.981L455.508 249.63L457.042 245.114H458V250.415H457.309V246.106L455.859 250.415H455.162Z" fill="black"/>
<defs>
<linearGradient id="paint0_linear_2426_4032" x1="53.0292" y1="211.082" x2="133.437" y2="315.156" gradientUnits="userSpaceOnUse">
<stop stop-color="#00C0F3"/>
<stop offset="1" stop-color="#007DC5"/>
</linearGradient>
</defs>
</svg>
