<svg width="500" height="500" viewBox="0 0 500 500" fill="none" xmlns="http://www.w3.org/2000/svg">
<g clip-path="url(#clip0_2447_4117)">
<path fill-rule="evenodd" clip-rule="evenodd" d="M105.846 155H395.031C398.483 155 401.307 157.824 401.307 161.276V188.966H413V205.7H401.307V292.229H413V309.823H401.307V338.791C401.307 342.243 398.483 345.067 395.031 345.067H105.846C102.394 345.067 99.57 342.243 99.57 338.791V310.921H88V293.327H99.57V208.192H88V189.147H99.57V161.276C99.57 157.824 102.394 155 105.846 155ZM118.023 172.644V327.416H382.854V172.644H118.016H118.023Z" fill="#1A1A18"/>
<path fill-rule="evenodd" clip-rule="evenodd" d="M328.153 190.338H354.832C360.372 190.338 364.9 194.867 364.9 200.406V217.443C364.994 220.289 365.218 220.383 362.712 220.368H351.77C348.303 220.426 348.802 220.376 348.758 217.053V208.625H337.513V292.424H347.415V253.172H345.711C343.789 253.172 343.833 253.475 343.833 251.547V240.316C343.833 238.121 343.681 238.381 345.869 238.388C351.546 238.395 357.143 238.438 362.798 238.446C365.088 238.446 364.893 238.207 364.893 240.504V298.881C364.893 304.413 360.364 308.949 354.825 308.949H328.146C322.614 308.949 318.078 304.421 318.078 298.881V200.406C318.078 194.867 322.607 190.338 328.146 190.338H328.153Z" fill="#1A1A18"/>
<path fill-rule="evenodd" clip-rule="evenodd" d="M293.386 190.338H295.545C301.084 190.338 305.613 194.867 305.613 200.406V243.082L301.518 247.538L306.855 252.847V298.874C306.855 304.406 302.327 308.942 296.787 308.942H271.567C271.206 308.942 270.845 308.92 270.491 308.884H261.449V255.887L258.127 252.558V240.988L261.449 237.658V190.338H292.606C292.866 190.338 293.118 190.338 293.378 190.338H293.386ZM280.075 208.314V237.644H287.369V208.314H280.075ZM280.075 256.581V291.717H288.157V256.581H280.075Z" fill="#1A1A18"/>
<path fill-rule="evenodd" clip-rule="evenodd" d="M249.424 192.31V298.874C249.424 304.406 244.896 308.942 239.356 308.942H209.297C203.765 308.942 199.229 304.413 199.229 298.874V192.31H218.13V291.551H230.523V192.31H249.424Z" fill="#1A1A18"/>
<path fill-rule="evenodd" clip-rule="evenodd" d="M187.659 251.337V200.551C187.659 195.018 183.124 190.483 177.592 190.483H140.895C140.895 203.49 140.895 216.519 140.903 229.541V242.447L137.797 245.552V257.122L140.895 260.221V261.846H140.917C140.917 277.547 140.924 293.248 140.924 308.934H159.825V261.846H177.584C183.117 261.846 187.652 257.317 187.652 251.778V251.33L187.659 251.337ZM159.832 244.462V207.874H168.759V244.462H159.832Z" fill="#1A1A18"/>
</g>
<defs>
<clipPath id="clip0_2447_4117">
<rect width="325" height="190.06" fill="white" transform="translate(88 155)"/>
</clipPath>
</defs>
</svg>
