<?xml version="1.0" encoding="utf-8"?>
<!-- Generator: Adobe Illustrator 25.4.1, SVG Export Plug-In . SVG Version: 6.00 Build 0)  -->
<svg version="1.1" id="ROBLOX" xmlns="http://www.w3.org/2000/svg" xmlns:xlink="http://www.w3.org/1999/xlink" x="0px" y="0px"
	 viewBox="0 0 500 500" style="enable-background:new 0 0 500 500;" xml:space="preserve">
<g>
	<path d="M108.5,209.2L91.8,274l64.8,16.7l16.7-64.8L108.5,209.2z M137.3,257.8l-12.7-3.2l3.2-12.7l12.7,3.2L137.3,257.8z"/>
	<path d="M60,216.4c16.9,0,24.3,10.1,24.3,20c0,6.2-2.7,11.4-7.6,14.8c7.2,8.2,11.6,19.2,12.9,32H58.9c-1.2-17.8-5-24.8-13-24.8
		v24.8H16.3v-66.9C16.3,216.4,60,216.4,60,216.4z M45.9,243.1h0.8c5.4,0,8-2,8-6.3c0-2.9-1.4-6.6-7-6.6h-1.8V243.1z"/>
	<path d="M222,216.4c21.7,0,26,11,26,18.7c0,5.5-2,10.5-8.7,14.3c8.4,4.5,10.5,9.6,10.5,15.4c0,10.3-7.3,18.5-22.9,18.5h-46.7v-66.9
		H222z M209.8,242.9h0.7c6.5,0,8.9-1.8,8.9-6.5c0-3.7-1.8-6.5-7.8-6.5h-1.8L209.8,242.9L209.8,242.9z M209.8,268.6h0.9
		c6.8,0,9.4-1.9,9.4-6.9c0-4.4-2.1-7.6-8.3-7.6h-2.1L209.8,268.6L209.8,268.6z"/>
	<path d="M258.8,216.4h29.6v50.1h26v16.8h-55.6V216.4z"/>
	<path d="M323.5,216.4v66.9h66.9v-66.9H323.5z M363.4,256.4h-13.1v-13.1h13.1V256.4z"/>
	<path d="M398.4,216.4h32.3l9.9,12.3l9.4-12.3h32.1l-25.3,32.9l26.9,34h-32.4L440.7,270l-10.2,13.2h-32.1l26.1-33.8L398.4,216.4z"/>
</g>
</svg>
