<svg width="500" height="500" viewBox="0 0 500 500" fill="none" xmlns="http://www.w3.org/2000/svg">
<path fill-rule="evenodd" clip-rule="evenodd" d="M242.708 201.106L242.689 165.03L206.256 165L206.25 201.043L242.708 201.106ZM106.194 287.234L75 293.672C77.2513 320.745 107.776 335.333 135.158 334.667C150.477 334.295 164.413 329.334 173.356 322.17C193.977 305.652 193.843 271.455 166.606 257.111C156.376 251.724 145.24 249.788 135.706 248.131C123.288 245.973 113.588 244.287 112.15 236.059C109.303 219.783 141.339 215.198 152.303 229.841C153.823 231.87 154.301 233.417 154.813 235.073C155.15 236.16 155.501 237.295 156.17 238.643L185.775 231.988C185.883 231.941 186.074 231.851 186.218 231.77C184.428 205.761 151.974 191.54 124.445 194.192C73.5403 199.095 61.4752 254.636 104.592 272.163C111.035 274.782 118.226 276.304 125.293 277.799L125.293 277.799C131.874 279.191 138.346 280.561 144.005 282.772C159.416 288.795 155.038 305.385 136.924 307.001C120.415 308.475 108.054 301.387 106.194 287.234ZM425 289.636L393.063 279.441C392.16 281.002 391.573 282.401 391.014 283.734C390.21 285.648 389.464 287.426 387.921 289.354C385.583 292.273 383.265 294.709 379.79 296.896C373.036 301.145 363.439 302.898 353.909 300.907C337.572 297.492 327.285 284.331 326.837 265.659C326.37 246.185 335.937 232.32 351.775 228.328C371.991 223.232 387.286 233.654 391.253 249.27L424.209 238.747C421.002 222.887 408.229 209.751 397.484 203.422C355.937 178.951 289.967 202.314 290.104 264.512C290.24 325.827 357.296 349.621 397.736 325.275C404.339 321.3 410.282 315.905 414.471 310.662C418.228 305.959 423.832 297.235 425 289.636ZM206.567 233.627L242.832 233.608C242.821 235.349 242.799 237.856 242.772 240.857C242.641 255.57 242.403 282.147 242.908 288.445C243.613 297.25 247.725 301.772 256.568 302.909C265.901 304.108 270.852 301.863 277.125 299.019C277.789 298.718 278.467 298.411 279.167 298.1L278.937 326.888C263.814 337.958 226.464 339.443 212.329 316.895C206.264 307.222 206.365 295.202 206.47 282.685V282.683V282.681C206.484 281.046 206.498 279.403 206.498 277.756C206.499 273.183 206.437 268.483 206.376 263.74V263.74V263.74C206.244 253.618 206.11 243.305 206.567 233.627ZM279.167 233.607L242.708 233.601L242.712 197.502L279.165 197.518L279.167 233.607Z" fill="#4F008C"/>
</svg>
