<svg width="500" height="500" viewBox="0 0 500 500" fill="none" xmlns="http://www.w3.org/2000/svg">
<path d="M105.343 187C72.4799 187 45.5582 212.339 43 244.541L76.5301 258.405C79.3712 256.462 82.8034 255.323 86.4958 255.323C86.8267 255.323 87.1562 255.337 87.4829 255.353L102.394 233.74C102.394 233.637 102.394 233.536 102.394 233.434C102.394 220.425 112.976 209.842 125.987 209.842C138.996 209.842 149.578 220.425 149.578 233.434C149.578 246.443 138.996 257.029 125.987 257.029C125.807 257.029 125.629 257.029 125.451 257.014L104.184 272.189C104.198 272.464 104.206 272.746 104.206 273.026C104.206 282.792 96.2621 290.734 86.4972 290.734C77.9259 290.734 70.7589 284.616 69.1354 276.515L45.1552 266.607C52.5796 292.865 76.7041 312.116 105.343 312.116C139.894 312.116 167.901 284.107 167.901 249.56C167.901 215.008 139.892 187 105.343 187" fill="black"/>
<path d="M82.2023 281.922L74.5177 278.748C75.8796 281.583 78.2356 283.957 81.3637 285.261C88.1263 288.078 95.9227 284.87 98.7411 278.101C100.106 274.829 100.114 271.216 98.7609 267.935C97.4104 264.652 94.862 262.093 91.5854 260.727C88.3342 259.373 84.8511 259.423 81.7908 260.578L89.7286 263.861C94.7164 265.939 97.0752 271.667 94.9964 276.655C92.9218 281.644 87.1901 284.003 82.2023 281.922" fill="black"/>
<path d="M141.704 233.434C141.704 224.767 134.653 217.714 125.984 217.714C117.316 217.714 110.264 224.767 110.264 233.434C110.264 242.103 117.316 249.153 125.984 249.153C134.653 249.153 141.704 242.102 141.704 233.434ZM114.201 233.408C114.201 226.885 119.488 221.599 126.011 221.599C132.533 221.599 137.82 226.885 137.82 233.408C137.82 239.93 132.533 245.216 126.011 245.216C119.488 245.216 114.201 239.928 114.201 233.408" fill="black"/>
<path d="M234.711 229.803L230.52 237.171C227.291 234.915 222.916 233.557 219.096 233.557C214.73 233.557 212.029 235.365 212.029 238.602C212.029 242.535 216.828 243.45 223.959 246.009C231.626 248.72 236.032 251.906 236.032 258.928C236.032 268.534 228.478 273.929 217.62 273.929C212.328 273.929 205.944 272.563 201.037 269.578L204.094 261.41C208.081 263.515 212.85 264.764 217.101 264.764C222.831 264.764 225.555 262.65 225.555 259.525C225.555 255.948 221.401 254.873 214.697 252.653C207.056 250.102 201.761 246.755 201.761 238.984C201.761 230.22 208.78 225.187 218.878 225.187C225.917 225.187 231.573 227.417 234.711 229.803Z" fill="black"/>
<path d="M257.608 273.122V234.46H243.283V225.994H281.761V234.46H267.478V273.122H257.608Z" fill="black"/>
<path d="M321.454 245.053V253.519H302.566V264.579H324.48V273.122H292.7V225.994H324.48V234.434H302.566V245.053H321.454Z" fill="black"/>
<path d="M346.509 263.972L343.389 273.123H333.043L350.713 225.996H360.648L378.817 273.122H368.122L364.934 263.971H346.509V263.972ZM355.625 237.237L349.189 256.107H362.194L355.625 237.237Z" fill="black"/>
<path d="M411.003 271.749L398.315 244.457V273.122H388.864V225.994H398.293L414.132 260.014L429.408 225.994H438.92V273.122H429.47V244.21L416.573 271.749H411.003Z" fill="black"/>
<path d="M458 231.94C458 235.99 454.965 238.514 451.482 238.514C447.986 238.514 444.944 235.99 444.944 231.94C444.944 227.891 447.986 225.384 451.482 225.384C454.967 225.384 458 227.891 458 231.94ZM446.04 231.94C446.04 235.328 448.481 237.456 451.482 237.456C454.472 237.456 456.903 235.328 456.903 231.94C456.903 228.541 454.472 226.446 451.482 226.446C448.49 226.446 446.04 228.567 446.04 231.94V231.94ZM451.573 228.59C453.262 228.59 453.831 229.483 453.831 230.449C453.831 231.334 453.306 231.928 452.667 232.231L454.182 235.069H452.942L451.664 232.553H450.348V235.069H449.316V228.59H451.573ZM450.358 231.605H451.509C452.254 231.605 452.694 231.136 452.694 230.548C452.694 229.954 452.379 229.572 451.506 229.572H450.356V231.605H450.358Z" fill="black"/>
</svg>
