<svg width="500" height="500" viewBox="0 0 500 500" fill="none" xmlns="http://www.w3.org/2000/svg">
<path d="M457 288.466L428.381 249.913L454.53 214.914H444.709L423.44 243.467L402.172 214.914H392.411L418.5 249.973L389.941 288.527H399.762L423.44 256.6L447.179 288.527H457" fill="#107C10"/>
<path d="M262.029 288.466L233.47 249.913L259.559 214.914H249.798L228.53 243.467L207.261 214.914H197.44L223.589 249.973L194.97 288.527H204.791L228.53 256.6L252.208 288.527H262.029" fill="#107C10"/>
<path d="M296.312 280.756C296.312 280.756 277.875 280.756 274.441 280.756V254.009C277.815 254.009 296.312 254.009 296.312 254.009C304.626 254.009 314.507 256.238 314.507 266.78C314.507 278.949 303.06 280.756 296.312 280.756ZM274.441 222.564C277.815 222.564 296.312 222.564 296.312 222.564C302.216 222.564 312.157 224.01 312.157 234.251C312.157 241.961 306.373 246.6 296.312 246.6C296.312 246.6 277.875 246.6 274.441 246.6V222.564ZM316.375 252.684C314.808 251.359 313.182 250.335 311.495 249.612C316.857 246.72 320.412 241.238 320.412 234.913C320.412 230.214 318.665 214.914 296.251 214.914H266.066V246.66C266.066 246.66 256.305 246.66 256.004 246.66C254.678 248.347 251.726 252.383 250.581 254.009C251.666 254.009 266.066 254.009 266.066 254.009V288.466H296.251C312.639 288.466 322.822 280.214 322.822 266.961C322.882 261.178 320.653 256.238 316.375 252.684Z" fill="#107C10"/>
<path d="M362.105 282.322C346.139 282.322 334.992 269.732 334.992 251.66C334.992 233.588 346.139 220.998 362.105 220.998C378.011 220.998 389.098 233.588 389.098 251.66C389.098 269.672 378.011 282.322 362.105 282.322ZM362.105 213.227C341.138 213.227 326.557 229.01 326.557 251.66C326.557 274.31 341.138 290.093 362.105 290.093C382.952 290.093 397.533 274.31 397.533 251.66C397.533 229.01 382.952 213.227 362.105 213.227Z" fill="#107C10"/>
<path d="M98.3429 312.089C88.7091 311.17 78.9501 307.704 70.5554 302.22C63.525 297.627 61.938 295.748 61.938 291.976C61.938 284.418 70.2492 271.167 84.4491 256.079C92.5236 247.504 103.758 237.455 104.97 237.719C107.336 238.248 126.228 256.705 133.3 265.377C144.493 279.129 149.644 290.375 147.027 295.386C145.036 299.2 132.715 306.647 123.666 309.5C116.204 311.866 106.403 312.868 98.3429 312.089ZM52.4574 284.126C46.6243 275.162 43.6729 266.323 42.239 253.559C41.7657 249.342 41.9327 246.934 43.311 238.276C45.0233 227.489 51.1488 215.017 58.5272 207.334C61.6735 204.063 61.9519 203.98 65.7803 205.274C70.4301 206.847 75.3862 210.271 83.0848 217.244L87.5815 221.309L85.1313 224.329C73.7295 238.332 61.7152 258.18 57.1907 270.457C54.7266 277.124 53.7382 283.833 54.7962 286.617C55.5062 288.496 54.8519 287.8 52.4574 284.126ZM154.92 285.643C155.491 282.831 154.767 277.653 153.055 272.434C149.365 261.131 136.989 240.086 125.629 225.791L122.051 221.295L125.921 217.732C130.975 213.083 134.483 210.299 138.27 207.947C141.263 206.081 145.523 204.439 147.361 204.439C148.488 204.439 152.47 208.573 155.686 213.097C160.67 220.084 164.331 228.575 166.183 237.399C167.38 243.106 167.477 255.313 166.377 260.992C165.473 265.655 163.551 271.71 161.686 275.83C160.28 278.906 156.799 284.877 155.268 286.826C154.488 287.8 154.488 287.8 154.92 285.643ZM99.373 202.295C94.1246 199.623 86.0362 196.77 81.5674 195.99C79.9942 195.726 77.3352 195.572 75.6229 195.656C71.9337 195.837 72.1007 195.656 78.0174 192.858C82.9317 190.534 87.0385 189.17 92.6072 188C98.8719 186.678 110.636 186.664 116.803 187.973C123.457 189.378 131.295 192.301 135.708 195.016L137.017 195.823L134.01 195.67C128.024 195.364 119.309 197.786 109.94 202.351C107.113 203.729 104.663 204.829 104.482 204.787C104.315 204.759 102.004 203.632 99.373 202.295Z" fill="#107C10"/>
</svg>
